<svg width="18" height="18" viewBox="0 0 18 18" fill="none" xmlns="http://www.w3.org/2000/svg">
<path d="M8.99902 12.5078C9.65169 12.5078 10.1834 13.0394 10.1836 13.6904C10.1836 14.3425 9.65167 14.875 8.99902 14.875C8.34774 14.8748 7.81641 14.3428 7.81641 13.6904C7.81661 13.0391 8.34772 12.508 8.99902 12.5078Z" fill="#625F6E" stroke="#625F6E"/>
<path d="M8.99902 7.82031C9.65167 7.82031 10.1834 8.35193 10.1836 9.00293C10.1836 9.655 9.65167 10.1875 8.99902 10.1875C8.34774 10.1873 7.81641 9.6553 7.81641 9.00293C7.81663 8.35163 8.34774 7.82052 8.99902 7.82031Z" fill="#625F6E" stroke="#625F6E"/>
<path d="M8.99902 3.125C9.65169 3.125 10.1834 3.65662 10.1836 4.30762C10.1836 4.95968 9.65167 5.49219 8.99902 5.49219C8.34774 5.49198 7.81641 4.95999 7.81641 4.30762C7.81661 3.65631 8.34772 3.12521 8.99902 3.125Z" fill="#625F6E" stroke="#625F6E"/>
</svg>
