<svg width="20" height="20" viewBox="0 0 20 20" fill="none" xmlns="http://www.w3.org/2000/svg">
<path d="M14.0931 10.0511C14.1142 12.3211 16.0845 13.0765 16.1063 13.0861C16.0896 13.1393 15.7915 14.1625 15.0683 15.2195C14.443 16.1333 13.7942 17.0437 12.772 17.0625C11.7677 17.081 11.4447 16.4669 10.2964 16.4669C9.14848 16.4669 8.78966 17.0437 7.83891 17.081C6.85226 17.1184 6.10092 16.093 5.47055 15.1825C4.18243 13.3202 3.19804 9.92011 4.51983 7.62499C5.17647 6.48522 6.34993 5.76347 7.62362 5.74496C8.59247 5.72648 9.50694 6.39678 10.0992 6.39678C10.6912 6.39678 11.8024 5.59069 12.9707 5.70907C13.4598 5.72943 14.8326 5.90663 15.7142 7.19698C15.6431 7.24101 14.0761 8.15328 14.0931 10.0511ZM12.2055 4.47701C12.7293 3.84295 13.0819 2.96028 12.9857 2.08203C12.2307 2.11238 11.3176 2.58517 10.7761 3.21888C10.2907 3.78006 9.86565 4.67826 9.98034 5.53913C10.8219 5.60424 11.6817 5.11147 12.2055 4.47701Z" fill="#020204"/>
</svg>
