<svg width="33" height="24" viewBox="0 0 33 24" fill="none" xmlns="http://www.w3.org/2000/svg">
<path fill-rule="evenodd" clip-rule="evenodd" d="M11.998 18.5243C17.6373 18.5243 20.2461 17.8812 20.498 15.3002C20.498 12.7209 18.6792 12.8867 18.6792 9.72204C18.6792 7.25007 16.0433 4.4375 11.998 4.4375C7.95282 4.4375 5.31689 7.25007 5.31689 9.72204C5.31689 12.8867 3.49805 12.7209 3.49805 15.3002C3.751 17.891 6.35982 18.5243 11.998 18.5243Z" stroke="#625F6E" stroke-width="1.5" stroke-linecap="round" stroke-linejoin="round"/>
<path d="M14.385 21.2031C13.0208 22.5495 10.8928 22.5655 9.51562 21.2031" stroke="#625F6E" stroke-width="1.5" stroke-linecap="round" stroke-linejoin="round"/>
<path d="M30.6505 16V9.688H28.8745V8.8H29.5945C29.9065 8.8 30.1545 8.76 30.3385 8.68C30.5305 8.6 30.6665 8.464 30.7465 8.272C30.8265 8.08 30.8665 7.816 30.8665 7.48H31.6825V16H30.6505Z" fill="#625F6E"/>
</svg>
