<svg width="20" height="20" viewBox="0 0 20 20" fill="none" xmlns="http://www.w3.org/2000/svg">
<path d="M3.3418 10.0938C6.7168 10.0938 10.0918 6.71875 10.0918 3.34375C10.0918 6.71875 13.4668 10.0938 16.8418 10.0938C13.4668 10.0938 10.0918 13.4688 10.0918 16.8438C10.0918 13.4688 6.7168 10.0938 3.3418 10.0938Z" stroke="#625F6E" stroke-width="1.5" stroke-linejoin="round"/>
<path d="M2.5918 15.7187C3.2168 15.7187 4.4668 14.4687 4.4668 13.8438C4.4668 14.4687 5.7168 15.7187 6.3418 15.7187C5.7168 15.7187 4.4668 16.9687 4.4668 17.5937C4.4668 16.9687 3.2168 15.7187 2.5918 15.7187Z" stroke="#625F6E" stroke-width="1.5" stroke-linejoin="round"/>
<path d="M13.0918 4.84375C13.8418 4.84375 15.3418 3.34375 15.3418 2.59375C15.3418 3.34375 16.8418 4.84375 17.5918 4.84375C16.8418 4.84375 15.3418 6.34375 15.3418 7.09375C15.3418 6.34375 13.8418 4.84375 13.0918 4.84375Z" stroke="#625F6E" stroke-width="1.5" stroke-linejoin="round"/>
</svg>
