<svg width="116" height="116" viewBox="0 0 116 116" fill="none" xmlns="http://www.w3.org/2000/svg">
<g filter="url(#filter0_d_10313_9494)">
<rect x="40" y="34" width="36" height="36" rx="18" fill="white" shape-rendering="crispEdges"/>
<rect x="40.5" y="34.5" width="35" height="35" rx="17.5" stroke="#E6E8EA" shape-rendering="crispEdges"/>
<path d="M49.5475 56.192C48.6035 56.192 47.8755 55.972 47.3635 55.532C46.8515 55.084 46.5755 54.508 46.5355 53.804L47.6035 53.732C47.6515 54.252 47.8515 54.624 48.2035 54.848C48.5635 55.072 49.0115 55.184 49.5475 55.184C49.9155 55.184 50.2555 55.136 50.5675 55.04C50.8795 54.936 51.1315 54.772 51.3235 54.548C51.5155 54.316 51.6115 54.008 51.6115 53.624C51.6115 53.056 51.4235 52.64 51.0475 52.376C50.6715 52.112 50.1755 51.98 49.5595 51.98H48.8875V50.972H49.5595C50.0635 50.972 50.4795 50.872 50.8075 50.672C51.1435 50.472 51.3115 50.128 51.3115 49.64C51.3115 49.2 51.1675 48.868 50.8795 48.644C50.5995 48.412 50.1755 48.296 49.6075 48.296C49.0475 48.296 48.6235 48.404 48.3355 48.62C48.0555 48.836 47.8875 49.132 47.8315 49.508L46.7515 49.436C46.8315 48.796 47.1155 48.28 47.6035 47.888C48.0915 47.488 48.7595 47.288 49.6075 47.288C50.1835 47.288 50.6795 47.384 51.0955 47.576C51.5115 47.76 51.8315 48.024 52.0555 48.368C52.2795 48.712 52.3915 49.12 52.3915 49.592C52.3915 50.12 52.2235 50.548 51.8875 50.876C51.5595 51.196 51.0715 51.416 50.4235 51.536V51.32C51.1195 51.4 51.6715 51.648 52.0795 52.064C52.4875 52.48 52.6915 53 52.6915 53.624C52.6915 54.168 52.5555 54.632 52.2835 55.016C52.0195 55.4 51.6515 55.692 51.1795 55.892C50.7075 56.092 50.1635 56.192 49.5475 56.192ZM57.9869 56V54.152H53.6549V53.216L57.9149 47.48H59.0189V53.144H60.0749V54.152H59.0189V56H57.9869ZM54.9029 53.144H57.9869V49.064L54.9029 53.144ZM62.8194 51.608C62.2834 51.608 61.8394 51.428 61.4874 51.068C61.1434 50.7 60.9714 50.176 60.9714 49.496C60.9714 48.808 61.1434 48.284 61.4874 47.924C61.8394 47.564 62.2834 47.384 62.8194 47.384C63.3634 47.384 63.8074 47.564 64.1514 47.924C64.4954 48.284 64.6674 48.808 64.6674 49.496C64.6674 50.176 64.4954 50.7 64.1514 51.068C63.8074 51.428 63.3634 51.608 62.8194 51.608ZM62.8194 50.864C63.1474 50.864 63.3914 50.744 63.5514 50.504C63.7194 50.264 63.8034 49.928 63.8034 49.496C63.8034 49.064 63.7194 48.728 63.5514 48.488C63.3914 48.248 63.1474 48.128 62.8194 48.128C62.4994 48.128 62.2554 48.248 62.0874 48.488C61.9194 48.728 61.8354 49.064 61.8354 49.496C61.8354 49.928 61.9194 50.264 62.0874 50.504C62.2554 50.744 62.4994 50.864 62.8194 50.864ZM67.6914 56.096C67.1554 56.096 66.7114 55.916 66.3594 55.556C66.0154 55.188 65.8434 54.664 65.8434 53.984C65.8434 53.296 66.0154 52.772 66.3594 52.412C66.7114 52.052 67.1554 51.872 67.6914 51.872C68.2354 51.872 68.6794 52.052 69.0234 52.412C69.3674 52.772 69.5394 53.296 69.5394 53.984C69.5394 54.664 69.3674 55.188 69.0234 55.556C68.6794 55.916 68.2354 56.096 67.6914 56.096ZM67.6914 55.352C68.0194 55.352 68.2634 55.232 68.4234 54.992C68.5914 54.752 68.6754 54.416 68.6754 53.984C68.6754 53.552 68.5914 53.216 68.4234 52.976C68.2634 52.736 68.0194 52.616 67.6914 52.616C67.3714 52.616 67.1274 52.736 66.9594 52.976C66.7914 53.216 66.7074 53.552 66.7074 53.984C66.7074 54.416 66.7914 54.752 66.9594 54.992C67.1274 55.232 67.3714 55.352 67.6914 55.352ZM61.8354 56L67.7154 47.48H68.6754L62.7954 56H61.8354Z" fill="#625F6E"/>
</g>
<defs>
<filter id="filter0_d_10313_9494" x="0" y="0" width="116" height="116" filterUnits="userSpaceOnUse" color-interpolation-filters="sRGB">
<feFlood flood-opacity="0" result="BackgroundImageFix"/>
<feColorMatrix in="SourceAlpha" type="matrix" values="0 0 0 0 0 0 0 0 0 0 0 0 0 0 0 0 0 0 127 0" result="hardAlpha"/>
<feOffset dy="6"/>
<feGaussianBlur stdDeviation="20"/>
<feComposite in2="hardAlpha" operator="out"/>
<feColorMatrix type="matrix" values="0 0 0 0 0.211908 0 0 0 0 0.215052 0 0 0 0 0.230769 0 0 0 0.16 0"/>
<feBlend mode="normal" in2="BackgroundImageFix" result="effect1_dropShadow_10313_9494"/>
<feBlend mode="normal" in="SourceGraphic" in2="effect1_dropShadow_10313_9494" result="shape"/>
</filter>
</defs>
</svg>
