<svg width="30" height="29" viewBox="0 0 30 29" fill="none" xmlns="http://www.w3.org/2000/svg">
<g filter="url(#filter0_dd_10460_21595)">
<path d="M3 9.5C3 5.35786 6.35786 2 10.5 2H19.5C23.6421 2 27 5.35786 27 9.5V18.5C27 22.6421 23.6421 26 19.5 26H10.5C6.35786 26 3 22.6421 3 18.5V9.5Z" fill="#32ABB9"/>
<g clip-path="url(#clip0_10460_21595)">
<mask id="mask0_10460_21595" style="mask-type:luminance" maskUnits="userSpaceOnUse" x="8" y="7" width="14" height="14">
<path d="M21.75 7.25H8.25V20.75H21.75V7.25Z" fill="white"/>
</mask>
<g mask="url(#mask0_10460_21595)">
<path fill-rule="evenodd" clip-rule="evenodd" d="M16.6807 7.58191L15.3915 13.0549L18.3498 8.2733C18.4415 8.12521 18.6472 8.1013 18.7703 8.22444L20.7756 10.2296C20.8987 10.3528 20.8748 10.5585 20.7267 10.6502L15.9451 13.6085L21.4181 12.3193C21.5876 12.2794 21.75 12.408 21.75 12.5821V15.4179C21.75 15.5921 21.5876 15.7206 21.4181 15.6807L15.9451 14.3915L20.7267 17.3499C20.8748 17.4415 20.8987 17.6472 20.7756 17.7704L18.7703 19.7756C18.6472 19.8987 18.4415 19.8748 18.3498 19.7267L15.3915 14.9451L16.6807 20.4181C16.7206 20.5876 16.592 20.75 16.4179 20.75H13.5821C13.408 20.75 13.2794 20.5876 13.3193 20.4181L14.6085 14.9451L11.6502 19.7267C11.5585 19.8748 11.3528 19.8987 11.2296 19.7756L9.22444 17.7703C9.1013 17.6472 9.12521 17.4415 9.2733 17.3498L14.0548 14.3915L8.58191 15.6807C8.41241 15.7206 8.25 15.5921 8.25 15.4179V12.5821C8.25 12.408 8.41241 12.2794 8.58191 12.3193L14.0549 13.6085L9.2733 10.6502C9.12521 10.5585 9.1013 10.3528 9.22444 10.2296L11.2296 8.22444C11.3528 8.10131 11.5585 8.12522 11.6502 8.27331L14.6085 13.0549L13.3193 7.58191C13.2794 7.41241 13.408 7.25 13.5821 7.25L16.4179 7.25C16.5921 7.25 16.7206 7.41241 16.6807 7.58191ZM15 14.7715C15.4261 14.7715 15.7715 14.4261 15.7715 14C15.7715 13.574 15.4261 13.2286 15 13.2286C14.574 13.2286 14.2286 13.574 14.2286 14C14.2286 14.4261 14.574 14.7715 15 14.7715Z" fill="url(#paint0_linear_10460_21595)"/>
</g>
</g>
</g>
<defs>
<filter id="filter0_dd_10460_21595" x="0.75" y="0.5" width="28.5" height="28.5" filterUnits="userSpaceOnUse" color-interpolation-filters="sRGB">
<feFlood flood-opacity="0" result="BackgroundImageFix"/>
<feColorMatrix in="SourceAlpha" type="matrix" values="0 0 0 0 0 0 0 0 0 0 0 0 0 0 0 0 0 0 127 0" result="hardAlpha"/>
<feOffset dy="0.75"/>
<feGaussianBlur stdDeviation="0.75"/>
<feColorMatrix type="matrix" values="0 0 0 0 0.0941176 0 0 0 0 0.137255 0 0 0 0 0.133333 0 0 0 0.06 0"/>
<feBlend mode="normal" in2="BackgroundImageFix" result="effect1_dropShadow_10460_21595"/>
<feColorMatrix in="SourceAlpha" type="matrix" values="0 0 0 0 0 0 0 0 0 0 0 0 0 0 0 0 0 0 127 0" result="hardAlpha"/>
<feOffset dy="0.75"/>
<feGaussianBlur stdDeviation="1.125"/>
<feColorMatrix type="matrix" values="0 0 0 0 0.0941176 0 0 0 0 0.137255 0 0 0 0 0.133333 0 0 0 0.1 0"/>
<feBlend mode="normal" in2="effect1_dropShadow_10460_21595" result="effect2_dropShadow_10460_21595"/>
<feBlend mode="normal" in="SourceGraphic" in2="effect2_dropShadow_10460_21595" result="shape"/>
</filter>
<linearGradient id="paint0_linear_10460_21595" x1="15" y1="7.25" x2="15" y2="20.75" gradientUnits="userSpaceOnUse">
<stop stop-color="white"/>
<stop offset="1" stop-color="white" stop-opacity="0.8"/>
</linearGradient>
<clipPath id="clip0_10460_21595">
<rect width="13.5" height="13.5" fill="white" transform="translate(8.25 7.25)"/>
</clipPath>
</defs>
</svg>
