<svg width="28" height="28" viewBox="0 0 28 28" fill="none" xmlns="http://www.w3.org/2000/svg">
<rect width="28" height="28" rx="8" fill="#020204" fill-opacity="0.4"/>
<rect x="0.5" y="0.5" width="27" height="27" rx="7.5" stroke="#020204" stroke-opacity="0.4"/>
<path fill-rule="evenodd" clip-rule="evenodd" d="M17.425 14.6507H16.651C16.375 14.6507 16.151 14.4267 16.151 14.1507C16.151 13.8747 16.375 13.6507 16.651 13.6507H17.425C17.701 13.6507 17.925 13.8747 17.925 14.1507C17.925 14.4267 17.701 14.6507 17.425 14.6507ZM17.425 17.1207H12.853C12.577 17.1207 12.353 16.8967 12.353 16.6207C12.353 16.3447 12.577 16.1207 12.853 16.1207H17.425C17.701 16.1207 17.925 16.3447 17.925 16.6207C17.925 16.8967 17.701 17.1207 17.425 17.1207ZM12.331 12.5347C12.5263 12.3394 12.843 12.3394 13.0383 12.5347L13.8303 13.3267L16.3543 10.8027C16.5497 10.6074 16.8657 10.6074 17.061 10.8027C17.2563 10.9981 17.2563 11.3141 17.061 11.5094L14.1837 14.3867C14.0863 14.4847 13.9583 14.5334 13.8303 14.5334C13.7023 14.5334 13.5743 14.4847 13.477 14.3867L12.331 13.2421C12.1356 13.0467 12.1356 12.7301 12.331 12.5347ZM17.4363 7.66406C11.7883 7.66406 11.7703 7.66473 11.767 7.66473C11.0096 7.68073 10.3036 7.9914 9.7803 8.53806C9.3523 8.9854 9.0983 9.54873 9.02497 10.1487H8.29297C8.01697 10.1487 7.79297 10.3727 7.79297 10.6487C7.79297 10.9247 8.01697 11.1487 8.29297 11.1487H10.5096C10.7076 11.1487 10.8743 11.0314 10.9556 10.8647C10.9883 10.9307 11.0096 11.0027 11.0096 11.0814C11.0096 11.3574 10.7863 11.5814 10.5096 11.5814H9.12764C9.054 11.5814 8.9943 11.6411 8.9943 11.7147V13.2801H8.29297C8.01697 13.2801 7.79297 13.5041 7.79297 13.7801C7.79297 14.0561 8.01697 14.2801 8.29297 14.2801H10.5096C10.7076 14.2801 10.8743 14.1627 10.9556 13.9967C10.9883 14.0627 11.0096 14.1341 11.0096 14.2127C11.0096 14.4887 10.7863 14.7127 10.5096 14.7127H9.12764C9.054 14.7127 8.9943 14.7724 8.9943 14.8461V16.4127H8.29297C8.01697 16.4127 7.79297 16.6367 7.79297 16.9127C7.79297 17.1887 8.01697 17.4127 8.29297 17.4127H10.5096C10.7076 17.4127 10.8743 17.2954 10.9556 17.1294C10.9883 17.1954 11.0096 17.2674 11.0096 17.3454C11.0096 17.6221 10.7863 17.8454 10.5096 17.8454H9.18014C9.09989 17.8454 9.0376 17.9159 9.05186 17.9949C9.29046 19.3161 10.4465 20.3307 11.8236 20.3307L17.4343 20.3301C18.9957 20.2954 20.239 18.9981 20.207 17.4367V10.5561C20.2177 8.9974 19.007 7.72673 17.4363 7.66406Z" fill="white"/>
</svg>
