<svg width="28" height="28" viewBox="0 0 28 28" fill="none" xmlns="http://www.w3.org/2000/svg">
<rect width="28" height="28" rx="8" fill="#32ABB9" fill-opacity="0.4"/>
<rect x="0.5" y="0.5" width="27" height="27" rx="7.5" stroke="#32ABB9" stroke-opacity="0.4"/>
<path fill-rule="evenodd" clip-rule="evenodd" d="M17.425 14.6546H16.651C16.375 14.6546 16.151 14.4306 16.151 14.1546C16.151 13.8786 16.375 13.6546 16.651 13.6546H17.425C17.701 13.6546 17.925 13.8786 17.925 14.1546C17.925 14.4306 17.701 14.6546 17.425 14.6546ZM17.425 17.1246H12.853C12.577 17.1246 12.353 16.9006 12.353 16.6246C12.353 16.3486 12.577 16.1246 12.853 16.1246H17.425C17.701 16.1246 17.925 16.3486 17.925 16.6246C17.925 16.9006 17.701 17.1246 17.425 17.1246ZM12.331 12.5386C12.5263 12.3433 12.843 12.3433 13.0383 12.5386L13.8303 13.3306L16.3543 10.8066C16.5497 10.6113 16.8657 10.6113 17.061 10.8066C17.2563 11.002 17.2563 11.318 17.061 11.5133L14.1837 14.3906C14.0863 14.4886 13.9583 14.5373 13.8303 14.5373C13.7023 14.5373 13.5743 14.4886 13.477 14.3906L12.331 13.246C12.1356 13.0506 12.1356 12.734 12.331 12.5386ZM17.4363 7.66797C11.7883 7.66797 11.7703 7.66864 11.767 7.66864C11.0096 7.68464 10.3036 7.9953 9.7803 8.54197C9.3523 8.9893 9.0983 9.55264 9.02497 10.1526H8.29297C8.01697 10.1526 7.79297 10.3766 7.79297 10.6526C7.79297 10.9286 8.01697 11.1526 8.29297 11.1526H10.5096C10.7076 11.1526 10.8743 11.0353 10.9556 10.8686C10.9883 10.9346 11.0096 11.0066 11.0096 11.0853C11.0096 11.3613 10.7863 11.5853 10.5096 11.5853H9.12764C9.054 11.5853 8.9943 11.645 8.9943 11.7186V13.284H8.29297C8.01697 13.284 7.79297 13.508 7.79297 13.784C7.79297 14.06 8.01697 14.284 8.29297 14.284H10.5096C10.7076 14.284 10.8743 14.1666 10.9556 14.0006C10.9883 14.0666 11.0096 14.138 11.0096 14.2166C11.0096 14.4926 10.7863 14.7166 10.5096 14.7166H9.12764C9.054 14.7166 8.9943 14.7763 8.9943 14.85V16.4166H8.29297C8.01697 16.4166 7.79297 16.6406 7.79297 16.9166C7.79297 17.1926 8.01697 17.4166 8.29297 17.4166H10.5096C10.7076 17.4166 10.8743 17.2993 10.9556 17.1333C10.9883 17.1993 11.0096 17.2713 11.0096 17.3493C11.0096 17.626 10.7863 17.8493 10.5096 17.8493H9.18014C9.09989 17.8493 9.0376 17.9198 9.05186 17.9988C9.29046 19.32 10.4465 20.3346 11.8236 20.3346L17.4343 20.334C18.9957 20.2993 20.239 19.002 20.207 17.4406V10.56C20.2177 9.0013 19.007 7.73064 17.4363 7.66797Z" fill="white"/>
</svg>
