<svg width="29" height="28" viewBox="0 0 29 28" fill="none" xmlns="http://www.w3.org/2000/svg">
<rect x="1" y="0.5" width="27" height="27" rx="7.5" fill="#593BF2" fill-opacity="0.4"/>
<rect x="1" y="0.5" width="27" height="27" rx="7.5" stroke="#E6E8EA"/>
<path d="M20.2892 17.4423V10.557C20.2989 9.18637 19.2202 8.05513 17.8515 8C17.8515 8 12.2096 8 12.1895 8.00065C10.8079 8.03049 9.71232 9.17535 9.74281 10.557V17.5617C9.77524 18.9213 10.8896 20.0052 12.2498 20L17.8425 19.9993C19.2241 19.9689 20.319 18.824 20.2892 17.4423Z" stroke="white" stroke-width="1.5" stroke-linecap="round" stroke-linejoin="round"/>
<path d="M13.2676 16.5357H17.4267M13.2676 14.0019H17.4267M13.2676 11.4688H15.2738" stroke="white" stroke-width="1.5" stroke-linecap="round" stroke-linejoin="round"/>
<path d="M8.70898 17.1313H10.9254M8.70898 13.9989H10.9254M8.70898 10.8672H10.9254" stroke="white" stroke-width="1.5" stroke-linecap="round" stroke-linejoin="round"/>
</svg>
