<svg width="26" height="26" viewBox="0 0 26 26" fill="none" xmlns="http://www.w3.org/2000/svg">
<g opacity="0.92" filter="url(#filter0_i_10460_20986)">
<rect x="1" y="1" width="24" height="24" rx="4.29474" fill="#593BF2"/>
<rect x="1" y="1" width="24" height="24" rx="4.29474" fill="white" fill-opacity="0.02"/>
<rect x="0.7" y="0.7" width="24.6" height="24.6" rx="4.59474" stroke="url(#paint0_linear_10460_20986)" stroke-width="0.6"/>
<path d="M18.7002 4.2998V14.2725C18.7002 15.1572 18.5397 15.9865 18.2227 16.7373C17.9019 17.4968 17.4711 18.1597 16.9316 18.7129C16.3918 19.2579 15.7475 19.6972 15.0205 20.0215C14.2903 20.3348 13.5133 20.5 12.6875 20.5C11.8667 20.5 11.0819 20.3424 10.3545 20.0215L10.3525 20.0205C9.62858 19.7058 8.98382 19.2589 8.44238 18.7119C7.97233 18.237 7.5842 17.6645 7.28516 17.0205L7.16211 16.7402C6.86029 15.987 6.7002 15.1563 6.7002 14.2725C6.70025 13.3863 6.85297 12.5652 7.16211 11.8145C7.47412 11.0567 7.90435 10.3951 8.44238 9.85156L8.44336 9.84961C8.97346 9.30608 9.61724 8.86767 10.3359 8.54297C11.0569 8.2296 11.8509 8.06353 12.6875 8.06348C13.5167 8.06348 14.2937 8.22088 15.0215 8.54199L15.0273 8.54395C15.1419 8.59163 15.2593 8.6485 15.3887 8.71582L15.4531 8.75H15.835V4.2998H18.7002ZM12.6709 10.8184C11.7567 10.8184 11.0124 11.1373 10.4336 11.8066C9.85953 12.462 9.5821 13.3015 9.58203 14.2812C9.58203 15.2531 9.8594 16.0855 10.4346 16.7324L10.4365 16.7334C11.0142 17.3734 11.7729 17.7021 12.6797 17.7021C13.1131 17.7021 13.5232 17.6154 13.9062 17.4404L13.9053 17.4395C14.284 17.2751 14.618 17.0334 14.8887 16.7236L14.8896 16.7246C15.1664 16.4173 15.3864 16.0542 15.541 15.6377C15.696 15.2202 15.7764 14.767 15.7764 14.2812C15.7763 13.7953 15.6955 13.3416 15.5312 12.9141L15.5303 12.9121L15.3994 12.6123C15.2578 12.3209 15.0853 12.0555 14.8848 11.8252L14.8818 11.8213L14.7754 11.709C14.5224 11.4541 14.2327 11.2497 13.9033 11.0908C13.5171 10.9046 13.1044 10.8184 12.6709 10.8184Z" fill="url(#paint1_linear_10460_20986)" fill-opacity="0.88" stroke="url(#paint2_linear_10460_20986)" stroke-width="0.6"/>
</g>
<defs>
<filter id="filter0_i_10460_20986" x="0.400391" y="-0.111562" width="25.1992" height="25.7131" filterUnits="userSpaceOnUse" color-interpolation-filters="sRGB">
<feFlood flood-opacity="0" result="BackgroundImageFix"/>
<feBlend mode="normal" in="SourceGraphic" in2="BackgroundImageFix" result="shape"/>
<feColorMatrix in="SourceAlpha" type="matrix" values="0 0 0 0 0 0 0 0 0 0 0 0 0 0 0 0 0 0 127 0" result="hardAlpha"/>
<feOffset dy="-0.51"/>
<feGaussianBlur stdDeviation="2.04"/>
<feComposite in2="hardAlpha" operator="arithmetic" k2="-1" k3="1"/>
<feColorMatrix type="matrix" values="0 0 0 0 1 0 0 0 0 1 0 0 0 0 1 0 0 0 0.4 0"/>
<feBlend mode="normal" in2="shape" result="effect1_innerShadow_10460_20986"/>
</filter>
<linearGradient id="paint0_linear_10460_20986" x1="13" y1="1" x2="13" y2="40.5" gradientUnits="userSpaceOnUse">
<stop offset="0.0873106" stop-color="#6438F5"/>
<stop offset="1" stop-color="#6438F5" stop-opacity="0.2"/>
</linearGradient>
<linearGradient id="paint1_linear_10460_20986" x1="12.7004" y1="4" x2="12.7004" y2="29.4748" gradientUnits="userSpaceOnUse">
<stop offset="0.313079" stop-color="white"/>
<stop offset="1" stop-color="white" stop-opacity="0"/>
</linearGradient>
<linearGradient id="paint2_linear_10460_20986" x1="34.9406" y1="-36.7756" x2="-9.922" y2="-9.47975" gradientUnits="userSpaceOnUse">
<stop stop-color="white"/>
<stop offset="1" stop-color="white" stop-opacity="0"/>
</linearGradient>
</defs>
</svg>
