<svg width="24" height="24" viewBox="0 0 24 24" fill="none" xmlns="http://www.w3.org/2000/svg">
<g filter="url(#filter0_iii_10460_21663)">
<path d="M0 5.33333C0 2.38782 2.38781 0 5.33333 0H18.6667C21.6122 0 24 2.38781 24 5.33333V18.6667C24 21.6122 21.6122 24 18.6667 24H5.33333C2.38782 24 0 21.6122 0 18.6667V5.33333Z" fill="#897EFA"/>
<path d="M0 5.33333C0 2.38782 2.38781 0 5.33333 0H18.6667C21.6122 0 24 2.38781 24 5.33333V18.6667C24 21.6122 21.6122 24 18.6667 24H5.33333C2.38782 24 0 21.6122 0 18.6667V5.33333Z" fill="url(#paint0_linear_10460_21663)"/>
<g clip-path="url(#clip0_10460_21663)">
<path d="M16.0181 5.19486C14.8924 4.56825 13.4227 5.4965 10.4834 7.35299C7.54288 9.21028 6.07259 10.1389 6.00349 11.5207C5.99888 11.6129 5.99884 11.7053 6.00336 11.7974C6.0711 13.1793 7.54048 14.1102 10.4792 15.972C13.418 17.8339 14.8873 18.7648 16.0138 18.1395C16.0889 18.0978 16.162 18.0516 16.2326 18.0013C16.9262 17.5062 17.1653 16.5365 17.2481 14.8795C17.1596 15.0513 17.0445 15.1843 16.895 15.2838C16.8518 15.3125 16.807 15.3389 16.761 15.3627C16.0707 15.7198 15.1702 15.1882 13.3692 14.125C11.5682 13.0619 10.6677 12.5303 10.6261 11.7412C10.6233 11.6885 10.6233 11.6357 10.6262 11.5831C10.6684 10.794 11.5694 10.2637 13.3713 9.20305C15.1725 8.14285 16.073 7.61274 16.7629 7.97056C16.8089 7.99443 16.8536 8.02083 16.8969 8.04965C17.0465 8.14938 17.1615 8.28268 17.25 8.45486C17.1682 6.79864 16.9297 5.82915 16.2367 5.33337C16.1662 5.28291 16.0932 5.23667 16.0181 5.19486Z" fill="url(#paint1_linear_10460_21663)"/>
<path d="M17.2507 11.6693C17.2507 12.8199 16.3179 13.7526 15.1673 13.7526C14.0167 13.7526 13.084 12.8199 13.084 11.6693C13.084 10.5187 14.0167 9.58594 15.1673 9.58594C16.3179 9.58594 17.2507 10.5187 17.2507 11.6693Z" fill="#DAD7FD"/>
</g>
<path d="M3.33268 6L3.51274 6.48661L3.99935 6.66667L3.51274 6.84673L3.33268 7.33333L3.15262 6.84673L2.66602 6.66667L3.15262 6.48661L3.33268 6Z" fill="white" fill-opacity="0.2"/>
<path d="M6.00065 3.33594L6.18071 3.82254L6.66732 4.0026L6.18071 4.18266L6.00065 4.66927L5.82059 4.18266L5.33398 4.0026L5.82059 3.82254L6.00065 3.33594Z" fill="white" fill-opacity="0.2"/>
<path d="M10.0007 1.33594L10.1807 1.82254L10.6673 2.0026L10.1807 2.18266L10.0007 2.66927L9.82059 2.18266L9.33398 2.0026L9.82059 1.82254L10.0007 1.33594Z" fill="white" fill-opacity="0.3"/>
<path d="M18.0007 3.33594L18.1807 3.82254L18.6673 4.0026L18.1807 4.18266L18.0007 4.66927L17.8206 4.18266L17.334 4.0026L17.8206 3.82254L18.0007 3.33594Z" fill="white" fill-opacity="0.3"/>
<path d="M4.00065 11.3359L4.18071 11.8225L4.66732 12.0026L4.18071 12.1827L4.00065 12.6693L3.82059 12.1827L3.33398 12.0026L3.82059 11.8225L4.00065 11.3359Z" fill="white" fill-opacity="0.2"/>
</g>
<defs>
<filter id="filter0_iii_10460_21663" x="0" y="0" width="24" height="30.6667" filterUnits="userSpaceOnUse" color-interpolation-filters="sRGB">
<feFlood flood-opacity="0" result="BackgroundImageFix"/>
<feBlend mode="normal" in="SourceGraphic" in2="BackgroundImageFix" result="shape"/>
<feColorMatrix in="SourceAlpha" type="matrix" values="0 0 0 0 0 0 0 0 0 0 0 0 0 0 0 0 0 0 127 0" result="hardAlpha"/>
<feOffset dy="6.66667"/>
<feGaussianBlur stdDeviation="13.3333"/>
<feComposite in2="hardAlpha" operator="arithmetic" k2="-1" k3="1"/>
<feColorMatrix type="matrix" values="0 0 0 0 1 0 0 0 0 1 0 0 0 0 1 0 0 0 0.1 0"/>
<feBlend mode="normal" in2="shape" result="effect1_innerShadow_10460_21663"/>
<feColorMatrix in="SourceAlpha" type="matrix" values="0 0 0 0 0 0 0 0 0 0 0 0 0 0 0 0 0 0 127 0" result="hardAlpha"/>
<feOffset dy="2"/>
<feGaussianBlur stdDeviation="3.33333"/>
<feComposite in2="hardAlpha" operator="arithmetic" k2="-1" k3="1"/>
<feColorMatrix type="matrix" values="0 0 0 0 0.280566 0 0 0 0 0.210943 0 0 0 0 0.969057 0 0 0 1 0"/>
<feBlend mode="normal" in2="effect1_innerShadow_10460_21663" result="effect2_innerShadow_10460_21663"/>
<feColorMatrix in="SourceAlpha" type="matrix" values="0 0 0 0 0 0 0 0 0 0 0 0 0 0 0 0 0 0 127 0" result="hardAlpha"/>
<feOffset dy="4"/>
<feGaussianBlur stdDeviation="3.33333"/>
<feComposite in2="hardAlpha" operator="arithmetic" k2="-1" k3="1"/>
<feColorMatrix type="matrix" values="0 0 0 0 0.700597 0 0 0 0 0.672687 0 0 0 0 0.987313 0 0 0 0.25 0"/>
<feBlend mode="normal" in2="effect2_innerShadow_10460_21663" result="effect3_innerShadow_10460_21663"/>
</filter>
<linearGradient id="paint0_linear_10460_21663" x1="27.3333" y1="12.0001" x2="-5" y2="12.0001" gradientUnits="userSpaceOnUse">
<stop stop-color="#B8B2FC"/>
<stop offset="0.25" stop-color="#897EFA"/>
<stop offset="0.5" stop-color="#897EFA"/>
<stop offset="0.75" stop-color="#897EFA"/>
<stop offset="1" stop-color="#B8B2FC"/>
</linearGradient>
<linearGradient id="paint1_linear_10460_21663" x1="11.625" y1="5" x2="11.625" y2="18.3333" gradientUnits="userSpaceOnUse">
<stop stop-color="white"/>
<stop offset="1" stop-color="white" stop-opacity="0.7"/>
</linearGradient>
<clipPath id="clip0_10460_21663">
<rect width="12" height="13.3333" fill="white" transform="translate(6 5)"/>
</clipPath>
</defs>
</svg>
