<svg width="40" height="40" viewBox="0 0 40 40" fill="none" xmlns="http://www.w3.org/2000/svg">
<path d="M20 0.5C30.7696 0.5 39.5 9.23045 39.5 20C39.5 30.7696 30.7696 39.5 20 39.5C9.23045 39.5 0.5 30.7696 0.5 20C0.5 9.23045 9.23045 0.5 20 0.5Z" fill="white"/>
<path d="M20 0.5C30.7696 0.5 39.5 9.23045 39.5 20C39.5 30.7696 30.7696 39.5 20 39.5C9.23045 39.5 0.5 30.7696 0.5 20C0.5 9.23045 9.23045 0.5 20 0.5Z" stroke="#E6E8EA"/>
<circle cx="20.5" cy="20" r="10.5" fill="#00A82D"/>
<path d="M18.025 16.2833C18.025 16.4176 18.0141 16.6415 17.8831 16.787C17.7413 16.9213 17.523 16.9325 17.392 16.9325C16.6553 16.9325 15.6334 16.7473 14.9365 17.0332C16 15.125 18.0602 13.857 18.0468 13.9663C17.9487 14.7214 18.025 15.5238 18.025 16.2833ZM20.2295 24.9466C20.2295 24.0176 20.9716 23.2565 21.8883 23.2565C22.1612 23.2565 22.3794 23.4803 22.3794 23.7602C22.3794 23.9504 22.2812 24.1071 22.1284 24.1967C21.962 24.2991 21.7316 24.2513 21.5828 24.387C21.4736 24.4765 21.3863 24.622 21.3863 24.7787C21.3863 24.9466 21.4518 25.1033 21.5609 25.2152C21.7574 25.4167 22.0193 25.5286 22.303 25.5286C23.0452 25.5286 23.6454 24.913 23.6454 24.1519C23.6454 23.4691 23.1979 22.8647 22.6086 22.5961C21.7142 22.1375 20.3458 22.3985 20.2404 20.9619C20.0764 21.7217 19.7145 23.0774 18.7344 23.0774C15.7735 23.2578 14.7063 20.8594 14.5 18.3204C14.5 17.7719 14.8274 17.4026 15.2421 17.3466C15.9842 17.3466 16.7263 17.3466 17.4684 17.3466C17.8504 17.3466 18.0687 17.2459 18.2105 17.1116C18.3961 16.9325 18.4397 16.675 18.4397 16.3728C18.4397 15.5856 18.4397 14.375 18.4397 14.0111C18.4397 13.5359 18.8544 13.25 19.3892 13.25C19.7042 13.25 19.9998 13.2611 20.3059 13.3395C20.9716 13.5074 21.1135 14.2014 21.1135 14.2014C21.1135 14.2014 22.3685 14.4253 23.0015 14.5372C23.6017 14.6491 25.0859 14.7499 25.3697 16.2833C26.0354 19.9322 25.6316 23.4691 25.5989 23.4691C25.1296 26.9166 22.3358 26.7487 22.3358 26.7487C21.3202 26.7487 20.2295 26.0556 20.2295 24.9466ZM23.5035 19.0032C23.1434 18.9696 22.8378 19.1151 22.7287 19.3949C22.574 19.7915 24.1692 20.1212 24.1692 19.574C24.1256 19.2606 23.8637 19.0479 23.5035 19.0032Z" fill="white"/>
</svg>
