<svg width="31" height="30" viewBox="0 0 31 30" fill="none" xmlns="http://www.w3.org/2000/svg">
<path d="M6.5 0.5H24.5C27.5376 0.5 30 2.96243 30 6V24C30 27.0376 27.5376 29.5 24.5 29.5H6.5C3.46243 29.5 1 27.0376 1 24V6C1 2.96243 3.46243 0.5 6.5 0.5Z" fill="#F7F6F9"/>
<path d="M6.5 0.5H24.5C27.5376 0.5 30 2.96243 30 6V24C30 27.0376 27.5376 29.5 24.5 29.5H6.5C3.46243 29.5 1 27.0376 1 24V6C1 2.96243 3.46243 0.5 6.5 0.5Z" stroke="#F7F6F9"/>
<circle cx="16.4993" cy="14.9974" r="8.33333" stroke="#625F6E" stroke-width="1.25"/>
<ellipse cx="16.4993" cy="14.9974" rx="3.33333" ry="8.33333" stroke="#625F6E" stroke-width="1.25"/>
<path d="M8.16602 15H24.8327" stroke="#625F6E" stroke-width="1.25" stroke-linecap="round" stroke-linejoin="round"/>
</svg>
