<svg width="20" height="20" viewBox="0 0 20 20" fill="none" xmlns="http://www.w3.org/2000/svg">
<path d="M10.1523 8.63672V11.5413H14.2711C14.0902 12.4754 13.5475 13.2663 12.7335 13.7981L15.2173 15.6868C16.6644 14.3777 17.4993 12.455 17.4993 10.1709C17.4993 9.63908 17.4506 9.12767 17.3601 8.6368L10.1523 8.63672Z" fill="#4285F4"/>
<path d="M3.32091 6.64062C2.79914 7.64968 2.5 8.78834 2.5 10.002C2.5 11.2156 2.79914 12.3542 3.32091 13.3633C3.32091 13.3701 5.86735 11.4269 5.86735 11.4269C5.71429 10.9769 5.62382 10.4997 5.62382 10.0019C5.62382 9.50409 5.71429 9.02684 5.86735 8.57684L3.32091 6.64062Z" fill="#FBBC05"/>
<path d="M10.1524 5.48638C11.2795 5.48638 12.2813 5.86819 13.0814 6.60457L15.273 4.45685C13.9441 3.24323 12.2188 2.5 10.1524 2.5C7.16074 2.5 4.57959 4.1841 3.32031 6.63866L5.86667 8.57504C6.47193 6.80228 8.16259 5.48638 10.1524 5.48638Z" fill="#EA4335"/>
<path d="M5.86338 11.4258L5.3032 11.846L3.32031 13.3596C4.57959 15.8074 7.16058 17.4983 10.1522 17.4983C12.2185 17.4983 13.9509 16.8301 15.2171 15.6847L12.7334 13.796C12.0516 14.246 11.1819 14.5188 10.1522 14.5188C8.16243 14.5188 6.47184 13.2029 5.86651 11.4301L5.86338 11.4258Z" fill="#34A853"/>
</svg>
