<svg width="18" height="18" viewBox="0 0 18 18" fill="none" xmlns="http://www.w3.org/2000/svg">
<path fill-rule="evenodd" clip-rule="evenodd" d="M5.8515 15.75H3.8985C2.988 15.75 2.25 15.012 2.25 14.1015V13.6485C2.25 12.738 2.988 12 3.8985 12H5.8515C6.762 12 7.5 12.738 7.5 13.6485L7.5 14.1015C7.5 15.012 6.762 15.75 5.8515 15.75Z" stroke="#625F6E" stroke-width="1.5" stroke-linecap="round" stroke-linejoin="round"/>
<path fill-rule="evenodd" clip-rule="evenodd" d="M5.8515 9H3.8985C2.988 9 2.25 8.262 2.25 7.3515L2.25 3.8985C2.25 2.988 2.988 2.25 3.8985 2.25L5.8515 2.25C6.762 2.25 7.5 2.988 7.5 3.8985L7.5 7.3515C7.5 8.262 6.762 9 5.8515 9Z" stroke="#625F6E" stroke-width="1.5" stroke-linecap="round" stroke-linejoin="round"/>
<path fill-rule="evenodd" clip-rule="evenodd" d="M14.1015 15.75H12.1485C11.238 15.75 10.5 15.012 10.5 14.1015L10.5 3.8985C10.5 2.988 11.238 2.25 12.1485 2.25L14.1015 2.25C15.012 2.25 15.75 2.988 15.75 3.8985L15.75 14.1015C15.75 15.012 15.012 15.75 14.1015 15.75Z" stroke="#625F6E" stroke-width="1.5" stroke-linecap="round" stroke-linejoin="round"/>
</svg>
