<svg width="18" height="18" viewBox="0 0 18 18" fill="none" xmlns="http://www.w3.org/2000/svg">
<path d="M12.6736 7.26156L13.8544 7.90034L14.1428 8.06234C14.757 8.40744 14.757 9.29714 14.1428 9.64224L10.231 11.84C9.32385 12.3497 8.21908 12.3497 7.31188 11.84L3.40013 9.64224C2.78589 9.29714 2.78589 8.40744 3.40013 8.06234L3.68844 7.90034L4.83768 7.24219" stroke="#625F6E" stroke-width="1.44"/>
<path d="M12.725 10.4453L14.0294 11.1086C14.675 11.4336 14.6956 12.3535 14.0654 12.7077L10.2318 14.8615C9.32459 15.3712 8.21982 15.3712 7.31262 14.8615L3.53492 12.7391C2.89378 12.3789 2.92911 11.4386 3.59543 11.1282L4.9094 10.4959" stroke="#625F6E" stroke-width="1.44"/>
<path d="M7.31188 2.66352L3.40013 4.86126C2.78589 5.20635 2.78589 6.09606 3.40013 6.44116L7.31188 8.63887C8.21908 9.14856 9.32385 9.14856 10.231 8.63887L14.1428 6.44116C14.757 6.09606 14.757 5.20635 14.1428 4.86126L10.231 2.66353C9.32385 2.15383 8.21908 2.15383 7.31188 2.66352Z" stroke="#625F6E" stroke-width="1.44"/>
</svg>
