<svg width="20" height="21" viewBox="0 0 20 21" fill="none" xmlns="http://www.w3.org/2000/svg">
<path d="M6.73595 2.95312H13.7648C16.2216 2.95312 17.75 4.69332 17.75 7.15594V13.8011C17.75 16.2636 16.2216 18.0039 13.764 18.0039H6.73595C4.27919 18.0039 2.75 16.2636 2.75 13.8011V7.15594C2.75 4.69332 4.28648 2.95312 6.73595 2.95312Z" stroke="#E4E3EA" stroke-width="1.5" stroke-linecap="round" stroke-linejoin="round"/>
<path d="M17.7468 10.8516H14.1768C13.4373 10.8516 12.7627 11.2714 12.4344 11.9361C12.0362 12.7415 11.2084 13.2946 10.2516 13.2946C9.29489 13.2946 8.46706 12.7415 8.06895 11.9361C7.74057 11.2714 7.06598 10.8516 6.32652 10.8516H2.75977" stroke="#E4E3EA" stroke-width="1.5" stroke-linecap="round" stroke-linejoin="round"/>
</svg>
