<svg width="20" height="20" viewBox="0 0 20 20" fill="none" xmlns="http://www.w3.org/2000/svg">
<path d="M6.38477 8.28175C7.36584 8.28175 9.08141 5.14927 9.80524 3.73664C9.93424 3.48479 9.99882 3.35886 10.098 3.26223C10.1833 3.17917 10.3083 3.10316 10.4213 3.06569C10.5527 3.02208 10.6682 3.02264 10.8992 3.02376C11.0718 3.0246 11.2412 3.03403 11.3671 3.0599C12.4537 3.28325 13.3006 4.60304 12.2047 8.00785C12.1653 8.1302 12.1457 8.19137 12.1573 8.23808C12.1681 8.2813 12.1943 8.31735 12.2322 8.34086C12.2731 8.36619 12.3362 8.36619 12.4622 8.36619H13.3415C14.9928 8.36619 15.8185 8.36619 16.3806 8.70394C16.8947 9.01294 17.2722 9.50569 17.4366 10.0826C17.6163 10.7133 17.4013 11.5104 16.9713 13.1047L16.5699 14.5929C16.3422 15.4372 16.2283 15.8594 15.9892 16.1746C15.7689 16.4648 15.4746 16.6903 15.137 16.8274C14.7703 16.9762 14.3332 16.9762 13.4587 16.9762H9.90041C9.61582 16.9762 9.47357 16.9762 9.33424 16.9568C9.20532 16.9388 9.07841 16.9084 8.95524 16.866C8.82224 16.8203 8.69532 16.7559 8.44166 16.6271L6.38477 15.5829" stroke="#625F6E" stroke-width="1.5" stroke-linecap="round" stroke-linejoin="round"/>
<path d="M4.50473 7.26563H4.37976C3.72879 7.26563 3.40332 7.26562 3.1538 7.3903C2.92478 7.50473 2.73911 7.69041 2.62468 7.91943C2.5 8.16894 2.5 8.49442 2.5 9.14542L2.5 15.0971C2.5 15.7481 2.5 16.0736 2.62468 16.3231C2.73911 16.5521 2.92478 16.7378 3.1538 16.8522C3.40332 16.9768 3.72879 16.9768 4.37976 16.9768H4.50473C5.1557 16.9768 5.48118 16.9768 5.73069 16.8522C5.95971 16.7378 6.14539 16.5521 6.25982 16.3231C6.38449 16.0736 6.38449 15.7481 6.38449 15.0971L6.38449 9.14542C6.38449 8.49442 6.38449 8.16894 6.25982 7.91943C6.14539 7.69041 5.95971 7.50473 5.73069 7.3903C5.48118 7.26562 5.1557 7.26563 4.50473 7.26563Z" stroke="#625F6E" stroke-width="1.5" stroke-linecap="round" stroke-linejoin="round"/>
</svg>
