<svg width="8" height="185" viewBox="0 0 8 185" fill="none" xmlns="http://www.w3.org/2000/svg">
<path d="M4 0C1.79086 -1.0585e-07 8.8094e-08 1.79086 0 4C-8.8094e-08 6.20914 1.79086 8 4 8C6.20914 8 8 6.20914 8 4C8 1.79086 6.20914 1.0585e-07 4 0ZM3.24999 184C3.24999 184.414 3.58578 184.75 3.99999 184.75C4.41421 184.75 4.74999 184.414 4.74999 184L3.24999 184ZM4 4L3.25 4L3.25 5.5L4 5.5L4.75 5.5L4.75 4L4 4ZM4 8.5L3.25 8.5L3.25 11.5L4 11.5L4.75 11.5L4.75 8.5L4 8.5ZM4 14.5L3.25 14.5L3.25 17.5L4 17.5L4.75 17.5L4.75 14.5L4 14.5ZM4 20.5L3.25 20.5L3.25 23.5L4 23.5L4.75 23.5L4.75 20.5L4 20.5ZM4 26.5L3.25 26.5L3.25 29.5L4 29.5L4.75 29.5L4.75 26.5L4 26.5ZM4 32.5L3.25 32.5L3.25 35.5L4 35.5L4.75 35.5L4.75 32.5L4 32.5ZM4 38.5L3.25 38.5L3.25 41.5L4 41.5L4.75 41.5L4.75 38.5L4 38.5ZM4 44.5L3.25 44.5L3.25 47.5L4 47.5L4.75 47.5L4.75 44.5L4 44.5ZM4 50.5L3.25 50.5L3.25 53.5L4 53.5L4.75 53.5L4.75 50.5L4 50.5ZM4 56.5L3.25 56.5L3.25 59.5L4 59.5L4.75 59.5L4.75 56.5L4 56.5ZM4 62.5L3.25 62.5L3.25 65.5L4 65.5L4.75 65.5L4.75 62.5L4 62.5ZM4 68.5L3.25 68.5L3.25 71.5L4 71.5L4.75 71.5L4.75 68.5L4 68.5ZM4 74.5L3.25 74.5L3.25 77.5L4 77.5L4.75 77.5L4.75 74.5L4 74.5ZM4 80.5L3.25 80.5L3.25 83.5L4 83.5L4.75 83.5L4.75 80.5L4 80.5ZM4 86.5L3.25 86.5L3.25 89.5L4 89.5L4.75 89.5L4.75 86.5L4 86.5ZM4 92.5L3.25 92.5L3.25 95.5L4 95.5L4.75 95.5L4.75 92.5L4 92.5ZM4 98.5L3.25 98.5L3.25 101.5L4 101.5L4.75 101.5L4.75 98.5L4 98.5ZM4 104.5L3.25 104.5L3.25 107.5L4 107.5L4.75 107.5L4.75 104.5L4 104.5ZM4 110.5L3.25 110.5L3.25 113.5L4 113.5L4.75 113.5L4.75 110.5L4 110.5ZM4 116.5L3.25 116.5L3.25 119.5L4 119.5L4.75 119.5L4.75 116.5L4 116.5ZM4 122.5L3.25 122.5L3.25 125.5L4 125.5L4.75 125.5L4.75 122.5L4 122.5ZM4 128.5L3.25 128.5L3.24999 131.5L3.99999 131.5L4.74999 131.5L4.75 128.5L4 128.5ZM3.99999 134.5L3.24999 134.5L3.24999 137.5L3.99999 137.5L4.74999 137.5L4.74999 134.5L3.99999 134.5ZM3.99999 140.5L3.24999 140.5L3.24999 143.5L3.99999 143.5L4.74999 143.5L4.74999 140.5L3.99999 140.5ZM3.99999 146.5L3.24999 146.5L3.24999 149.5L3.99999 149.5L4.74999 149.5L4.74999 146.5L3.99999 146.5ZM3.99999 152.5L3.24999 152.5L3.24999 155.5L3.99999 155.5L4.74999 155.5L4.74999 152.5L3.99999 152.5ZM3.99999 158.5L3.24999 158.5L3.24999 161.5L3.99999 161.5L4.74999 161.5L4.74999 158.5L3.99999 158.5ZM3.99999 164.5L3.24999 164.5L3.24999 167.5L3.99999 167.5L4.74999 167.5L4.74999 164.5L3.99999 164.5ZM3.99999 170.5L3.24999 170.5L3.24999 173.5L3.99999 173.5L4.74999 173.5L4.74999 170.5L3.99999 170.5ZM3.99999 176.5L3.24999 176.5L3.24999 179.5L3.99999 179.5L4.74999 179.5L4.74999 176.5L3.99999 176.5ZM3.99999 182.5L3.24999 182.5L3.24999 184L3.99999 184L4.74999 184L4.74999 182.5L3.99999 182.5Z" fill="#593BF2"/>
</svg>
