<svg width="20" height="20" viewBox="0 0 20 20" fill="none" xmlns="http://www.w3.org/2000/svg">
<path d="M8.33398 11.0268C8.45201 11.22 8.59205 11.4029 8.75412 11.5716C9.76038 12.6189 11.2941 12.7826 12.4653 12.0627C12.6823 11.9294 12.8869 11.7657 13.0733 11.5716L15.7728 8.76212C16.9655 7.52081 16.9655 5.50824 15.7728 4.26692C14.5801 3.02561 12.6463 3.02561 11.4536 4.26692L10.859 4.88576" stroke="#625F6E" stroke-width="1.5" stroke-linecap="round"/>
<path d="M9.14257 15.1166L8.54775 15.7357C7.35503 16.977 5.42125 16.977 4.22853 15.7357C3.0358 14.4944 3.0358 12.4818 4.22853 11.2405L6.92804 8.43099C8.12076 7.18967 10.0545 7.18967 11.2473 8.43098C11.4093 8.59961 11.5493 8.78247 11.6673 8.9757" stroke="#625F6E" stroke-width="1.5" stroke-linecap="round"/>
</svg>
