<svg width="40" height="40" viewBox="0 0 40 40" fill="none" xmlns="http://www.w3.org/2000/svg">
<path d="M0 8C0 3.58172 3.58172 0 8 0H32C36.4183 0 40 3.58172 40 8V32C40 36.4183 36.4183 40 32 40H8C3.58172 40 0 36.4183 0 32V8Z" fill="#020204" fill-opacity="0.04"/>
<path d="M8 0.5H32C36.1421 0.5 39.5 3.85786 39.5 8V32C39.5 36.1421 36.1421 39.5 32 39.5H8C3.85786 39.5 0.5 36.1421 0.5 32V8C0.5 3.85786 3.85786 0.5 8 0.5Z" stroke="#020204" stroke-opacity="0.08"/>
<path d="M14.25 16.25H16.5" stroke="#625F6E" stroke-width="1.5" stroke-linecap="round" stroke-linejoin="round"/>
<path d="M14.25 23.75H18.75" stroke="#625F6E" stroke-width="1.5" stroke-linecap="round" stroke-linejoin="round"/>
<path d="M25.5 23.75L27.75 23.75" stroke="#625F6E" stroke-width="1.5" stroke-linecap="round" stroke-linejoin="round"/>
<path d="M23.25 16.25L27.75 16.25" stroke="#625F6E" stroke-width="1.5" stroke-linecap="round" stroke-linejoin="round"/>
<path d="M16.5 16.25C16.5 15.5511 16.5 15.2016 16.6142 14.926C16.7664 14.5584 17.0584 14.2664 17.426 14.1142C17.7016 14 18.0511 14 18.75 14C19.4489 14 19.7984 14 20.074 14.1142C20.4416 14.2664 20.7336 14.5584 20.8858 14.926C21 15.2016 21 15.5511 21 16.25C21 16.9489 21 17.2984 20.8858 17.574C20.7336 17.9416 20.4416 18.2336 20.074 18.3858C19.7984 18.5 19.4489 18.5 18.75 18.5C18.0511 18.5 17.7016 18.5 17.426 18.3858C17.0584 18.2336 16.7664 17.9416 16.6142 17.574C16.5 17.2984 16.5 16.9489 16.5 16.25Z" stroke="#625F6E" stroke-width="1.5"/>
<path d="M21 23.75C21 23.0511 21 22.7016 21.1142 22.426C21.2664 22.0584 21.5584 21.7664 21.926 21.6142C22.2016 21.5 22.5511 21.5 23.25 21.5C23.9489 21.5 24.2984 21.5 24.574 21.6142C24.9416 21.7664 25.2336 22.0584 25.3858 22.426C25.5 22.7016 25.5 23.0511 25.5 23.75C25.5 24.4489 25.5 24.7984 25.3858 25.074C25.2336 25.4416 24.9416 25.7336 24.574 25.8858C24.2984 26 23.9489 26 23.25 26C22.5511 26 22.2016 26 21.926 25.8858C21.5584 25.7336 21.2664 25.4416 21.1142 25.074C21 24.7984 21 24.4489 21 23.75Z" stroke="#625F6E" stroke-width="1.5"/>
</svg>
