<svg width="18" height="18" viewBox="0 0 18 18" fill="none" xmlns="http://www.w3.org/2000/svg">
<path d="M10.4444 9.58315L8.83315 7.97192C8.61352 7.75229 8.5037 7.64247 8.38524 7.58377C8.15985 7.47208 7.89522 7.47208 7.66983 7.58377C7.55137 7.64247 7.44155 7.75229 7.22192 7.97192C7.00229 8.19155 6.89247 8.30137 6.83377 8.41983C6.72208 8.64522 6.72208 8.90985 6.83377 9.13524C6.89247 9.2537 7.00229 9.36352 7.22192 9.58315L8.83315 11.1944M10.4444 9.58315L15.2781 14.4168C15.4977 14.6365 15.6075 14.7463 15.6662 14.8648C15.7779 15.0902 15.7779 15.3548 15.6662 15.5802C15.6075 15.6986 15.4977 15.8085 15.2781 16.0281C15.0584 16.2477 14.9486 16.3575 14.8302 16.4162C14.6048 16.5279 14.3402 16.5279 14.1148 16.4162C13.9963 16.3575 13.8865 16.2477 13.6668 16.0281L8.83315 11.1944M10.4444 9.58315L8.83315 11.1944" stroke="#625F6E" stroke-width="1.5" stroke-linecap="round" stroke-linejoin="round"/>
<path d="M12.75 1.5L12.9711 2.09745C13.261 2.88087 13.4059 3.27259 13.6917 3.55834C13.9774 3.84408 14.3691 3.98903 15.1525 4.27892L15.75 4.5L15.1525 4.72108C14.3691 5.01097 13.9774 5.15592 13.6917 5.44167C13.4059 5.72741 13.261 6.11913 12.9711 6.90255L12.75 7.5L12.5289 6.90255C12.239 6.11913 12.0941 5.72741 11.8083 5.44167C11.5226 5.15592 11.1309 5.01097 10.3475 4.72108L9.75 4.5L10.3475 4.27892C11.1309 3.98903 11.5226 3.84408 11.8083 3.55833C12.0941 3.27259 12.239 2.88087 12.5289 2.09745L12.75 1.5Z" stroke="#625F6E" stroke-width="1.5" stroke-linejoin="round"/>
<path d="M4.5 3L4.66581 3.44809C4.88323 4.03566 4.99194 4.32944 5.20625 4.54375C5.42056 4.75806 5.71434 4.86677 6.30191 5.08419L6.75 5.25L6.30191 5.41581C5.71434 5.63323 5.42056 5.74194 5.20625 5.95625C4.99194 6.17056 4.88323 6.46434 4.66581 7.05191L4.5 7.5L4.33419 7.05191C4.11677 6.46434 4.00806 6.17056 3.79375 5.95625C3.57944 5.74194 3.28566 5.63323 2.69809 5.41581L2.25 5.25L2.69809 5.08419C3.28566 4.86677 3.57944 4.75806 3.79375 4.54375C4.00806 4.32944 4.11677 4.03566 4.33419 3.44809L4.5 3Z" stroke="#625F6E" stroke-width="1.5" stroke-linejoin="round"/>
</svg>
