<svg width="14" height="14" viewBox="0 0 14 14" fill="none" xmlns="http://www.w3.org/2000/svg">
<path fill-rule="evenodd" clip-rule="evenodd" d="M3.32371 10.6253C4.86351 12.1657 7.14543 12.4986 9.01107 11.6355C9.28676 11.5244 9.51289 11.435 9.72759 11.435C10.3258 11.4383 11.0707 12.0186 11.4575 11.6317C11.8444 11.2448 11.2641 10.5 11.2641 9.89845C11.2641 9.68324 11.3502 9.46148 11.4608 9.18523C12.3244 7.31959 11.9909 5.0382 10.4512 3.49786C8.48473 1.53196 5.29015 1.53196 3.32371 3.49786C1.354 5.46811 1.35727 8.65889 3.32371 10.6253Z" stroke="#625F6E" stroke-linecap="round" stroke-linejoin="round"/>
<path d="M4.64864 7.21342V7.25251M4.49023 7.22182C4.49023 7.3098 4.56162 7.38114 4.64961 7.38114C4.7376 7.38114 4.80889 7.3098 4.80889 7.22182C4.80889 7.13384 4.7376 7.0625 4.64961 7.0625C4.56162 7.0625 4.49023 7.13384 4.49023 7.22182Z" stroke="#625F6E" stroke-linecap="round" stroke-linejoin="round"/>
<path d="M6.89079 7.21342V7.25251M6.73242 7.22182C6.73242 7.3098 6.80382 7.38114 6.8918 7.38114C6.97977 7.38114 7.05106 7.3098 7.05106 7.22182C7.05106 7.13384 6.97977 7.0625 6.8918 7.0625C6.80382 7.0625 6.73242 7.13384 6.73242 7.22182Z" stroke="#625F6E" stroke-linecap="round" stroke-linejoin="round"/>
<path d="M9.13499 7.21342V7.25251M8.97656 7.22182C8.97656 7.3098 9.04796 7.38114 9.13594 7.38114C9.22397 7.38114 9.29526 7.3098 9.29526 7.22182C9.29526 7.13384 9.22397 7.0625 9.13594 7.0625C9.04796 7.0625 8.97656 7.13384 8.97656 7.22182Z" stroke="#625F6E" stroke-linecap="round" stroke-linejoin="round"/>
</svg>
