<svg width="29" height="28" viewBox="0 0 29 28" fill="none" xmlns="http://www.w3.org/2000/svg">
<path d="M8.5 0.5H20.5C24.6421 0.5 28 3.85786 28 8V20C28 24.1421 24.6421 27.5 20.5 27.5H8.5C4.35786 27.5 1 24.1421 1 20V8C1 3.85786 4.35786 0.5 8.5 0.5Z" fill="#F7F6F9"/>
<path d="M8.5 0.5H20.5C24.6421 0.5 28 3.85786 28 8V20C28 24.1421 24.6421 27.5 20.5 27.5H8.5C4.35786 27.5 1 24.1421 1 20V8C1 3.85786 4.35786 0.5 8.5 0.5Z" stroke="#E6E8EA"/>
<path d="M20.2892 17.4423V10.557C20.2989 9.18637 19.2202 8.05513 17.8515 8C17.8515 8 12.2096 8 12.1895 8.00065C10.8079 8.03049 9.71232 9.17535 9.74281 10.557V17.5617C9.77524 18.9213 10.8896 20.0052 12.2498 20L17.8425 19.9993C19.2241 19.9689 20.319 18.824 20.2892 17.4423Z" stroke="#625F6E" stroke-width="1.5" stroke-linecap="round" stroke-linejoin="round"/>
<path d="M13.2676 16.5357H17.4267M13.2676 14.0019H17.4267M13.2676 11.4688H15.2738" stroke="#625F6E" stroke-width="1.5" stroke-linecap="round" stroke-linejoin="round"/>
<path d="M8.70898 17.1313H10.9254M8.70898 13.9989H10.9254M8.70898 10.8672H10.9254" stroke="#625F6E" stroke-width="1.5" stroke-linecap="round" stroke-linejoin="round"/>
</svg>
