<svg width="29" height="28" viewBox="0 0 29 28" fill="none" xmlns="http://www.w3.org/2000/svg">
<path d="M8.5 0.5H20.5C24.6421 0.5 28 3.85786 28 8V20C28 24.1421 24.6421 27.5 20.5 27.5H8.5C4.35786 27.5 1 24.1421 1 20V8C1 3.85786 4.35786 0.5 8.5 0.5Z" fill="#F7F6F9"/>
<path d="M8.5 0.5H20.5C24.6421 0.5 28 3.85786 28 8V20C28 24.1421 24.6421 27.5 20.5 27.5H8.5C4.35786 27.5 1 24.1421 1 20V8C1 3.85786 4.35786 0.5 8.5 0.5Z" stroke="#E6E8EA"/>
<path d="M17.0671 19.4389C16.7629 19.7519 16.3429 19.9292 15.9039 19.9292H11.6889C9.72932 19.9292 8.5 18.5581 8.5 16.6176V11.3819C8.5 9.44077 9.72318 8.07031 11.6889 8.07031H17.3111C19.2775 8.07031 20.5 9.44077 20.5 11.3819V15.2642C20.5 15.6753 20.3391 16.0715 20.0507 16.3681L17.0671 19.4389Z" stroke="#625F6E" stroke-width="1.5" stroke-linecap="round" stroke-linejoin="round"/>
<path d="M16.2832 19.8809V17.6316C16.2825 16.5338 17.1818 15.6427 18.2925 15.6406H20.4477" stroke="#625F6E" stroke-width="1.5" stroke-linecap="round" stroke-linejoin="round"/>
<path d="M16.0705 12.1328H11.7819M14.4465 15.2776H11.7812" stroke="#625F6E" stroke-width="1.5" stroke-linecap="round" stroke-linejoin="round"/>
</svg>
