<svg width="29" height="28" viewBox="0 0 29 28" fill="none" xmlns="http://www.w3.org/2000/svg">
<path d="M8.5 0.5H20.5C24.6421 0.5 28 3.85786 28 8V20C28 24.1421 24.6421 27.5 20.5 27.5H8.5C4.35786 27.5 1 24.1421 1 20V8C1 3.85786 4.35786 0.5 8.5 0.5Z" fill="#F7F6F9"/>
<path d="M8.5 0.5H20.5C24.6421 0.5 28 3.85786 28 8V20C28 24.1421 24.6421 27.5 20.5 27.5H8.5C4.35786 27.5 1 24.1421 1 20V8C1 3.85786 4.35786 0.5 8.5 0.5Z" stroke="#E6E8EA"/>
<path d="M20.1991 17.7869V14.3492C20.1991 13.1291 19.2099 12.1406 17.9905 12.1406H11.008C9.78798 12.1406 8.79883 13.1291 8.79883 14.3492V17.7869C8.79883 19.007 9.78798 19.9961 11.008 19.9961H17.9905C19.2099 19.9961 20.1991 19.007 20.1991 17.7869Z" stroke="#625F6E" stroke-width="1.5" stroke-linecap="round" stroke-linejoin="round"/>
<path d="M13.1309 16.0385L14.2063 17.1139L16.2961 15.0234" stroke="#625F6E" stroke-width="1.5" stroke-linecap="round" stroke-linejoin="round"/>
<path d="M10.6211 10.0745H18.378M12.3123 8H16.6867" stroke="#625F6E" stroke-width="1.5" stroke-linecap="round" stroke-linejoin="round"/>
</svg>
