<svg width="24" height="24" viewBox="0 0 24 24" fill="none" xmlns="http://www.w3.org/2000/svg">
<g filter="url(#filter0_ii_10460_20908)">
<rect width="24" height="24" rx="5.33333" fill="#7648F5"/>
<rect width="24" height="24" rx="5.33333" fill="url(#paint0_linear_10460_20908)" fill-opacity="0.12"/>
<rect x="0.333333" y="0.333333" width="23.3333" height="23.3333" rx="5" stroke="url(#paint1_linear_10460_20908)" stroke-opacity="0.12" stroke-width="0.666667"/>
<g clip-path="url(#clip0_10460_20908)">
<path d="M13.0166 4.80469C16.9924 4.80469 20.2168 8.02912 20.2168 12.0049C20.2168 15.9806 16.9924 19.2051 13.0166 19.2051C9.04099 19.2049 5.81739 15.9805 5.81738 12.0049C5.81738 10.2336 6.45725 8.61159 7.51855 7.35742H6.47559C5.77493 7.35718 4.97586 6.78362 4.7002 6.08301L4.19922 4.80957H12.7783C12.8575 4.80702 12.9368 4.80469 13.0166 4.80469ZM13.0166 7.35742C10.4505 7.35763 8.36917 9.43874 8.36914 12.0049C8.36915 14.571 10.4505 16.6521 13.0166 16.6523C15.5828 16.6523 17.6641 14.5712 17.6641 12.0049C17.6641 9.43861 15.5829 7.35742 13.0166 7.35742ZM15.6504 14.1191C15.1247 14.9252 14.2145 15.458 13.1807 15.458C12.147 15.4579 11.2375 14.9251 10.7119 14.1191C11.4199 14.4269 12.2685 14.6064 13.1807 14.6064C14.093 14.6064 14.9423 14.4269 15.6504 14.1191Z" fill="white"/>
</g>
</g>
<defs>
<filter id="filter0_ii_10460_20908" x="0" y="-2.66667" width="24.6667" height="27.3333" filterUnits="userSpaceOnUse" color-interpolation-filters="sRGB">
<feFlood flood-opacity="0" result="BackgroundImageFix"/>
<feBlend mode="normal" in="SourceGraphic" in2="BackgroundImageFix" result="shape"/>
<feColorMatrix in="SourceAlpha" type="matrix" values="0 0 0 0 0 0 0 0 0 0 0 0 0 0 0 0 0 0 127 0" result="hardAlpha"/>
<feOffset dx="0.666667" dy="-2.66667"/>
<feGaussianBlur stdDeviation="1.33333"/>
<feComposite in2="hardAlpha" operator="arithmetic" k2="-1" k3="1"/>
<feColorMatrix type="matrix" values="0 0 0 0 1 0 0 0 0 1 0 0 0 0 1 0 0 0 0.2 0"/>
<feBlend mode="normal" in2="shape" result="effect1_innerShadow_10460_20908"/>
<feColorMatrix in="SourceAlpha" type="matrix" values="0 0 0 0 0 0 0 0 0 0 0 0 0 0 0 0 0 0 127 0" result="hardAlpha"/>
<feOffset dy="0.666667"/>
<feGaussianBlur stdDeviation="1.33333"/>
<feComposite in2="hardAlpha" operator="arithmetic" k2="-1" k3="1"/>
<feColorMatrix type="matrix" values="0 0 0 0 1 0 0 0 0 1 0 0 0 0 1 0 0 0 0.25 0"/>
<feBlend mode="normal" in2="effect1_innerShadow_10460_20908" result="effect2_innerShadow_10460_20908"/>
</filter>
<linearGradient id="paint0_linear_10460_20908" x1="12" y1="0" x2="12" y2="24" gradientUnits="userSpaceOnUse">
<stop stop-color="white"/>
<stop offset="1" stop-color="white" stop-opacity="0"/>
</linearGradient>
<linearGradient id="paint1_linear_10460_20908" x1="12" y1="0.3" x2="12" y2="24" gradientUnits="userSpaceOnUse">
<stop stop-color="#4511D6"/>
<stop offset="1" stop-color="white" stop-opacity="0"/>
</linearGradient>
<clipPath id="clip0_10460_20908">
<rect width="18" height="18" fill="white" transform="translate(3 3)"/>
</clipPath>
</defs>
</svg>
