<svg width="28" height="28" viewBox="0 0 28 28" fill="none" xmlns="http://www.w3.org/2000/svg">
<rect x="0.5" y="0.5" width="27" height="27" rx="7.5" fill="white"/>
<rect x="0.5" y="0.5" width="27" height="27" rx="7.5" stroke="#E6E8EA"/>
<path fill-rule="evenodd" clip-rule="evenodd" d="M15.9211 15.1504C16.1469 14.4451 15.8829 13.6386 15.1425 13.3998C14.7532 13.2752 14.3269 13.3472 13.9992 13.5925C13.6715 13.3492 13.2479 13.2778 12.8585 13.3998C12.1182 13.6386 11.8522 14.4451 12.078 15.1504C12.4296 16.2678 13.9992 17.1294 13.9992 17.1294C13.9992 17.1294 15.5571 16.2808 15.9211 15.1504Z" stroke="#625F6E" stroke-width="1.5" stroke-linecap="round" stroke-linejoin="round"/>
<path d="M15.1911 8.00002C15.5629 8.00002 15.9191 8.1512 16.1767 8.41983L18.704 11.0529C18.9487 11.3073 19.0849 11.6466 19.0849 11.9996V17.4422C19.0947 18.8133 18.0163 19.9442 16.6471 20L11.3635 19.9993C9.98141 19.9689 8.88614 18.8243 8.91664 17.4422V10.4378C8.94908 9.07842 10.0632 7.99418 11.4232 8.00002H15.1911Z" stroke="#625F6E" stroke-width="1.5" stroke-linecap="round" stroke-linejoin="round"/>
<path d="M15.5137 8.04297V9.97138C15.5131 10.9122 16.2748 11.6766 17.2163 11.6785H19.0422" stroke="#625F6E" stroke-width="1.5" stroke-linecap="round" stroke-linejoin="round"/>
</svg>
