<svg width="24" height="24" viewBox="0 0 24 24" fill="none" xmlns="http://www.w3.org/2000/svg">
<g clip-path="url(#clip0_10460_21603)">
<path fill-rule="evenodd" clip-rule="evenodd" d="M18.3441 0.304688C7.91826 0.304688 7.88378 0.305918 7.87763 0.305918C6.47948 0.335457 5.17734 0.908995 4.21117 1.91946C3.32625 2.84376 2.84132 4.03515 2.78471 5.29053H1.46409C0.954554 5.29053 0.541016 5.70407 0.541016 6.21361C0.541016 6.72315 0.954554 7.13669 1.46409 7.13669H5.5564C5.91086 7.13669 6.20871 6.92992 6.36378 6.63699C6.43148 6.76623 6.47948 6.9053 6.47948 7.06038C6.47948 7.56992 6.06594 7.98346 5.5564 7.98346H3.00502C2.86908 7.98346 2.75886 8.09366 2.75886 8.22961V11.0715H1.46409C0.954554 11.0715 0.541016 11.485 0.541016 11.9945C0.541016 12.5041 0.954554 12.9176 1.46409 12.9176H5.5564C5.91086 12.9176 6.20871 12.7108 6.36378 12.4179C6.43148 12.5471 6.47948 12.6862 6.47948 12.8425C6.47948 13.3521 6.06594 13.7656 5.5564 13.7656H3.00502C2.86908 13.7656 2.75886 13.8758 2.75886 14.0118V16.8548H1.46409C0.954554 16.8548 0.541016 17.2684 0.541016 17.7779C0.541016 18.2875 0.954554 18.701 1.46409 18.701H5.5564C5.91086 18.701 6.20871 18.4955 6.36378 18.2025C6.43148 18.3305 6.47948 18.4708 6.47948 18.6259C6.47948 19.1355 6.06594 19.549 5.5564 19.549H3.18423C3.02743 19.549 2.91041 19.694 2.95238 19.845C3.56585 22.0536 5.60247 23.6893 7.98225 23.6893L18.3404 23.6881C21.2266 23.6241 23.522 21.2241 23.4592 18.3527V5.6413C23.4777 2.765 21.2426 0.421611 18.3441 0.304688Z" fill="#AC3CFF"/>
<path d="M11.8981 8.15705C11.0484 8.15705 10.3596 8.84584 10.3596 9.69551C10.3596 9.98713 10.4408 10.2598 10.5817 10.4922C9.87104 10.6281 9.33398 11.2529 9.33398 12.0032C9.33398 12.7535 9.87104 13.3783 10.5817 13.5142M11.8981 8.15705C11.8981 7.44899 12.4721 6.875 13.1801 6.875C13.8882 6.875 14.4622 7.44899 14.4622 8.15705V15.8494C14.4622 16.5574 13.8882 17.1314 13.1801 17.1314C12.4721 17.1314 11.8981 16.5574 11.8981 15.8494C11.0484 15.8494 10.3596 15.1606 10.3596 14.3109C10.3596 14.0193 10.4408 13.7466 10.5817 13.5142M11.8981 8.15705C11.8981 8.57649 12.0995 8.94889 12.4109 9.18279M10.5817 13.5142C10.7645 13.2128 11.0479 12.9792 11.3853 12.86" stroke="white" stroke-width="1.10769" stroke-linecap="round" stroke-linejoin="round"/>
<path d="M18.1795 8.28305L17.0256 9.4369H16M17.7949 8.28305C17.7949 8.49547 17.9671 8.66767 18.1795 8.66767C18.3919 8.66767 18.5641 8.49547 18.5641 8.28305C18.5641 8.07064 18.3919 7.89844 18.1795 7.89844C17.9671 7.89844 17.7949 8.07064 17.7949 8.28305Z" stroke="white" stroke-width="1.10769" stroke-linecap="round" stroke-linejoin="round"/>
<path d="M18.1795 15.7242L17.0256 14.5703H16M17.7949 15.7242C17.7949 15.5117 17.9671 15.3395 18.1795 15.3395C18.3919 15.3395 18.5641 15.5117 18.5641 15.7242C18.5641 15.9366 18.3919 16.1088 18.1795 16.1088C17.9671 16.1088 17.7949 15.9366 17.7949 15.7242Z" stroke="white" stroke-width="1.10769" stroke-linecap="round" stroke-linejoin="round"/>
<path d="M18.1795 12.0018H16M17.7949 12.0018C17.7949 12.2142 17.9671 12.3864 18.1795 12.3864C18.3919 12.3864 18.5641 12.2142 18.5641 12.0018C18.5641 11.7894 18.3919 11.6172 18.1795 11.6172C17.9671 11.6172 17.7949 11.7894 17.7949 12.0018Z" stroke="white" stroke-width="1.10769" stroke-linecap="round" stroke-linejoin="round"/>
</g>
<defs>
<clipPath id="clip0_10460_21603">
<rect width="24" height="24" fill="white"/>
</clipPath>
</defs>
</svg>
