<svg width="40" height="40" viewBox="0 0 40 40" fill="none" xmlns="http://www.w3.org/2000/svg">
<path d="M8 0.5H32C36.1421 0.5 39.5 3.85786 39.5 8V32C39.5 36.1421 36.1421 39.5 32 39.5H8C3.85786 39.5 0.5 36.1421 0.5 32V8C0.5 3.85786 3.85786 0.5 8 0.5Z" fill="#0F1613" fill-opacity="0.02"/>
<path d="M8 0.5H32C36.1421 0.5 39.5 3.85786 39.5 8V32C39.5 36.1421 36.1421 39.5 32 39.5H8C3.85786 39.5 0.5 36.1421 0.5 32V8C0.5 3.85786 3.85786 0.5 8 0.5Z" stroke="#E6E8EA"/>
<path fill-rule="evenodd" clip-rule="evenodd" d="M20 10.5C25.2459 10.5 29.5 14.7531 29.5 20C29.5 25.2469 25.2459 29.5 20 29.5C14.7531 29.5 10.5 25.2469 10.5 20C10.5 14.7531 14.7531 10.5 20 10.5Z" stroke="#625F6E" stroke-width="2" stroke-linecap="round" stroke-linejoin="round"/>
<path fill-rule="evenodd" clip-rule="evenodd" d="M23 19.9951C23 19.184 18.8425 16.5891 18.3709 17.0557C17.8993 17.5223 17.8539 22.424 18.3709 22.9346C18.8879 23.4469 23 20.8063 23 19.9951Z" stroke="#625F6E" stroke-width="2" stroke-linecap="round" stroke-linejoin="round"/>
</svg>
