<svg width="20" height="20" viewBox="0 0 20 20" fill="none" xmlns="http://www.w3.org/2000/svg">
<path d="M7.22461 15.6399C7.22461 16.234 7.22461 16.5311 7.32355 16.7647C7.45018 17.0638 7.68818 17.3018 7.9872 17.4284C8.22086 17.5274 8.51793 17.5274 9.11209 17.5274H10.8881C11.4823 17.5274 11.7793 17.5274 12.013 17.4284C12.312 17.3018 12.55 17.0638 12.6767 16.7647C12.7756 16.5311 12.7756 16.234 12.7756 15.6399V15.4109C12.7756 14.8168 12.7756 14.5197 12.6767 14.286C12.55 13.987 12.312 13.749 12.013 13.6224C11.7793 13.5234 11.4823 13.5234 10.8881 13.5234H9.11209C8.51793 13.5234 8.22086 13.5234 7.9872 13.6224C7.68818 13.749 7.45018 13.987 7.32355 14.286C7.22461 14.5197 7.22461 14.8168 7.22461 15.4109V15.6399Z" stroke="#625F6E" stroke-width="1.5"/>
<path d="M2.92578 4.58514C2.92578 5.17931 2.92578 5.47639 3.02472 5.71005C3.15134 6.00908 3.38935 6.24708 3.68836 6.3737C3.92203 6.47264 4.21911 6.47264 4.81328 6.47264H6.58927C7.18344 6.47264 7.48052 6.47264 7.71419 6.3737C8.01321 6.24708 8.25121 6.00908 8.37781 5.71005C8.47681 5.47639 8.47681 5.17931 8.47681 4.58514V4.35625C8.47681 3.76208 8.47681 3.465 8.37781 3.23133C8.25121 2.93232 8.01321 2.69431 7.71419 2.56769C7.48052 2.46875 7.18344 2.46875 6.58928 2.46875H4.81328C4.21911 2.46875 3.92203 2.46875 3.68836 2.56769C3.38935 2.69431 3.15134 2.93232 3.02472 3.23133C2.92578 3.465 2.92578 3.76208 2.92578 4.35625V4.58514Z" stroke="#625F6E" stroke-width="1.5"/>
<path d="M11.5254 4.58514C11.5254 5.17931 11.5254 5.47639 11.6243 5.71005C11.751 6.00908 11.989 6.24708 12.288 6.3737C12.5216 6.47264 12.8187 6.47264 13.4129 6.47264H15.1889C15.7831 6.47264 16.0801 6.47264 16.3138 6.3737C16.6128 6.24708 16.8508 6.00908 16.9774 5.71005C17.0764 5.47639 17.0764 5.17931 17.0764 4.58514V4.35625C17.0764 3.76208 17.0764 3.465 16.9774 3.23133C16.8508 2.93232 16.6128 2.69431 16.3138 2.56769C16.0801 2.46875 15.7831 2.46875 15.1889 2.46875H13.4129C12.8187 2.46875 12.5216 2.46875 12.288 2.56769C11.989 2.69431 11.751 2.93232 11.6243 3.23133C11.5254 3.465 11.5254 3.76208 11.5254 4.35625V4.58514Z" stroke="#625F6E" stroke-width="1.5"/>
<path d="M14.2991 6.46875L14.2994 7.95993C14.2994 8.67291 14.2994 9.02941 14.1806 9.30982C14.0286 9.66866 13.743 9.95424 13.3842 10.1062C13.1039 10.2249 12.7474 10.2249 12.0344 10.2249H7.96446C7.25146 10.2249 6.89496 10.2249 6.61457 10.1062C6.25574 9.95424 5.97014 9.66866 5.81819 9.30982C5.69946 9.02941 5.69946 8.67291 5.69946 7.95993L5.69922 6.46875" stroke="#625F6E" stroke-width="1.5"/>
<path d="M10 13.4951V10.2578" stroke="#625F6E" stroke-width="1.5" stroke-linecap="round" stroke-linejoin="round"/>
</svg>
