<svg width="20" height="20" viewBox="0 0 20 20" fill="none" xmlns="http://www.w3.org/2000/svg">
<path fill-rule="evenodd" clip-rule="evenodd" d="M16.7709 14.1641H6.77083C6.31 14.1641 5.9375 14.5366 5.9375 14.9974C5.9375 15.4582 6.31 15.8307 6.77083 15.8307H16.7709C17.2317 15.8307 17.6042 15.4582 17.6042 14.9974C17.6042 14.5366 17.2317 14.1641 16.7709 14.1641Z" fill="#625F6E"/>
<path fill-rule="evenodd" clip-rule="evenodd" d="M16.7709 9.16406H6.77083C6.31 9.16406 5.9375 9.53656 5.9375 9.9974C5.9375 10.4582 6.31 10.8307 6.77083 10.8307H16.7709C17.2317 10.8307 17.6042 10.4582 17.6042 9.9974C17.6042 9.53656 17.2317 9.16406 16.7709 9.16406Z" fill="#625F6E"/>
<path fill-rule="evenodd" clip-rule="evenodd" d="M6.77083 5.83073H16.7709C17.2317 5.83073 17.6042 5.45823 17.6042 4.9974C17.6042 4.53656 17.2317 4.16406 16.7709 4.16406H6.77083C6.31 4.16406 5.9375 4.53656 5.9375 4.9974C5.9375 5.45823 6.31 5.83073 6.77083 5.83073Z" fill="#625F6E"/>
<path fill-rule="evenodd" clip-rule="evenodd" d="M3.44536 3.94531C2.8662 3.94531 2.39453 4.41948 2.39453 5.00364C2.39453 5.58197 2.8662 6.05281 3.44536 6.05281C4.02453 6.05281 4.49703 5.58197 4.49703 5.00364C4.49703 4.41948 4.02453 3.94531 3.44536 3.94531Z" fill="#625F6E"/>
<path fill-rule="evenodd" clip-rule="evenodd" d="M3.44536 9.0625C2.8662 9.0625 2.39453 9.53333 2.39453 10.1125C2.39453 10.6908 2.8662 11.1625 3.44536 11.1625C4.02453 11.1625 4.49703 10.6908 4.49703 10.1125C4.49703 9.53333 4.02453 9.0625 3.44536 9.0625Z" fill="#625F6E"/>
<path fill-rule="evenodd" clip-rule="evenodd" d="M3.44536 13.9453C2.8662 13.9453 2.39453 14.4195 2.39453 15.0036C2.39453 15.582 2.8662 16.0528 3.44536 16.0528C4.02453 16.0528 4.49703 15.582 4.49703 15.0036C4.49703 14.4195 4.02453 13.9453 3.44536 13.9453Z" fill="#625F6E"/>
</svg>
