<svg width="18" height="18" viewBox="0 0 18 18" fill="none" xmlns="http://www.w3.org/2000/svg">
<g clip-path="url(#clip0_11158_8767)">
<path d="M4.5 4.5H4.5075M4.5 13.5H4.5075M3.9 7.5L14.1 7.5C14.9401 7.5 15.3601 7.5 15.681 7.33651C15.9632 7.1927 16.1927 6.96323 16.3365 6.68099C16.5 6.36012 16.5 5.94008 16.5 5.1V3.9C16.5 3.05992 16.5 2.63988 16.3365 2.31901C16.1927 2.03677 15.9632 1.8073 15.681 1.66349C15.3601 1.5 14.9401 1.5 14.1 1.5L3.9 1.5C3.05992 1.5 2.63988 1.5 2.31901 1.66349C2.03677 1.8073 1.8073 2.03677 1.66349 2.31901C1.5 2.63988 1.5 3.05992 1.5 3.9L1.5 5.1C1.5 5.94008 1.5 6.36012 1.66349 6.68099C1.8073 6.96323 2.03677 7.1927 2.31901 7.33651C2.63988 7.5 3.05992 7.5 3.9 7.5ZM3.9 16.5L14.1 16.5C14.9401 16.5 15.3601 16.5 15.681 16.3365C15.9632 16.1927 16.1927 15.9632 16.3365 15.681C16.5 15.3601 16.5 14.9401 16.5 14.1V12.9C16.5 12.0599 16.5 11.6399 16.3365 11.319C16.1927 11.0368 15.9632 10.8073 15.681 10.6635C15.3601 10.5 14.9401 10.5 14.1 10.5L3.9 10.5C3.05992 10.5 2.63988 10.5 2.31901 10.6635C2.03677 10.8073 1.8073 11.0368 1.66349 11.319C1.5 11.6399 1.5 12.0599 1.5 12.9L1.5 14.1C1.5 14.9401 1.5 15.3601 1.66349 15.681C1.8073 15.9632 2.03677 16.1927 2.31901 16.3365C2.63988 16.5 3.05992 16.5 3.9 16.5Z" stroke="#625F6E" stroke-width="1.5" stroke-linecap="round" stroke-linejoin="round"/>
</g>
<defs>
<clipPath id="clip0_11158_8767">
<rect width="18" height="18" fill="white"/>
</clipPath>
</defs>
</svg>
