<svg width="18" height="18" viewBox="0 0 18 18" fill="none" xmlns="http://www.w3.org/2000/svg">
<path d="M14.9064 8.43726C15.683 8.43726 16.3125 7.80771 16.3125 7.03113C16.3125 6.25455 15.6829 5.625 14.9063 5.625C14.1297 5.625 13.5 6.2546 13.5 7.03125V8.43726H14.9064ZM10.9688 8.43726C11.7454 8.43726 12.375 7.80766 12.375 7.03101L12.375 3.09375C12.375 2.3171 11.7454 1.6875 10.9688 1.6875C10.1921 1.6875 9.5625 2.3171 9.5625 3.09375L9.5625 7.03101C9.5625 7.80766 10.1921 8.43726 10.9688 8.43726Z" fill="#2EB67D"/>
<path d="M3.09363 9.56274C2.31705 9.56274 1.6875 10.1923 1.6875 10.9689C1.6875 11.7455 2.31711 12.375 3.09369 12.375C3.87034 12.375 4.5 11.7454 4.5 10.9687V9.56274H3.09363ZM7.03125 9.56274C6.2546 9.56274 5.625 10.1923 5.625 10.969L5.625 14.9062C5.625 15.6829 6.2546 16.3125 7.03125 16.3125C7.8079 16.3125 8.4375 15.6829 8.4375 14.9063L8.4375 10.969C8.4375 10.1923 7.8079 9.56274 7.03125 9.56274Z" fill="#E01E5A"/>
<path d="M9.56274 14.9064C9.56274 15.683 10.1923 16.3125 10.9689 16.3125C11.7455 16.3125 12.375 15.6829 12.375 14.9063C12.375 14.1297 11.7454 13.5 10.9687 13.5L9.56274 13.5L9.56274 14.9064ZM9.56274 10.9687C9.56274 11.7454 10.1923 12.375 10.969 12.375L14.9062 12.375C15.6829 12.375 16.3125 11.7454 16.3125 10.9687C16.3125 10.1921 15.6829 9.5625 14.9063 9.5625L10.969 9.5625C10.1923 9.5625 9.56274 10.1921 9.56274 10.9687Z" fill="#ECB22E"/>
<path d="M8.43726 3.09363C8.43726 2.31705 7.80771 1.6875 7.03113 1.6875C6.25455 1.6875 5.625 2.31711 5.625 3.09369C5.625 3.87034 6.2546 4.5 7.03125 4.5L8.43726 4.5L8.43726 3.09363ZM8.43726 7.03125C8.43726 6.2546 7.80766 5.625 7.03101 5.625L3.09375 5.625C2.3171 5.625 1.6875 6.2546 1.6875 7.03125C1.6875 7.8079 2.3171 8.4375 3.09375 8.4375L7.03101 8.4375C7.80766 8.4375 8.43726 7.8079 8.43726 7.03125Z" fill="#36C5F0"/>
</svg>
