<svg width="18" height="18" viewBox="0 0 18 18" fill="none" xmlns="http://www.w3.org/2000/svg">
<path fill-rule="evenodd" clip-rule="evenodd" d="M5.43632 14.2789C5.21807 14.2789 5.02082 14.1859 4.88432 14.0374L2.61632 11.7552C2.32457 11.4612 2.32607 10.9857 2.61932 10.6947C2.91332 10.4014 3.38807 10.4037 3.67982 10.6977L4.68557 11.7094L4.68557 7.82816C4.68557 7.41412 5.02082 7.07812 5.43557 7.07812C5.85032 7.07812 6.18557 7.41412 6.18557 7.82816L6.18557 11.7102L7.19207 10.6977C7.48382 10.4044 7.9586 10.4022 8.2526 10.6947C8.54585 10.9857 8.54735 11.4604 8.2556 11.7552L5.96882 14.0577C5.82707 14.1994 5.63657 14.2789 5.43632 14.2789Z" fill="#625F6E"/>
<path fill-rule="evenodd" clip-rule="evenodd" d="M15 5.21875L3 5.21875C2.58525 5.21875 2.25 4.8835 2.25 4.46875C2.25 4.054 2.58525 3.71875 3 3.71875L15 3.71875C15.4148 3.71875 15.75 4.054 15.75 4.46875C15.75 4.8835 15.4148 5.21875 15 5.21875ZM14.9993 9.48622L10.1573 9.48622C9.7425 9.48622 9.40725 9.15097 9.40725 8.73622C9.40725 8.32222 9.7425 7.98622 10.1573 7.98622L14.9993 7.98622C15.414 7.98622 15.7493 8.32222 15.7493 8.73622C15.7493 9.15097 15.414 9.48622 14.9993 9.48622ZM14.9993 13.8887L10.1573 13.8887C9.7425 13.8887 9.40725 13.5527 9.40725 13.1387C9.40725 12.724 9.7425 12.3887 10.1573 12.3887L14.9993 12.3887C15.414 12.3887 15.7493 12.724 15.7493 13.1387C15.7493 13.5527 15.414 13.8887 14.9993 13.8887Z" fill="#625F6E"/>
</svg>
