<svg width="20" height="20" viewBox="0 0 20 20" fill="none" xmlns="http://www.w3.org/2000/svg">
<path opacity="0.4" d="M2.5 10C6.25 10 10 6.25 10 2.5C10 6.25 13.75 10 17.5 10C13.75 10 10 13.75 10 17.5C10 13.75 6.25 10 2.5 10Z" fill="#593BF2"/>
<path d="M2.5 10C6.25 10 10 6.25 10 2.5C10 6.25 13.75 10 17.5 10C13.75 10 10 13.75 10 17.5C10 13.75 6.25 10 2.5 10Z" stroke="#593BF2" stroke-width="1.5" stroke-linejoin="round"/>
<path d="M1.66602 16.2474C2.36046 16.2474 3.74935 14.8585 3.74935 14.1641C3.74935 14.8585 5.13824 16.2474 5.83268 16.2474C5.13824 16.2474 3.74935 17.6363 3.74935 18.3307C3.74935 17.6363 2.36046 16.2474 1.66602 16.2474Z" stroke="#593BF2" stroke-width="1.5" stroke-linejoin="round"/>
<path d="M13.334 4.16406C14.1673 4.16406 15.834 2.4974 15.834 1.66406C15.834 2.4974 17.5007 4.16406 18.334 4.16406C17.5007 4.16406 15.834 5.83073 15.834 6.66406C15.834 5.83073 14.1673 4.16406 13.334 4.16406Z" stroke="#593BF2" stroke-width="1.5" stroke-linejoin="round"/>
</svg>
