<svg width="26" height="26" viewBox="0 0 26 26" fill="none" xmlns="http://www.w3.org/2000/svg">
<rect x="0.5" y="0.5" width="24.3333" height="24.3333" rx="7.5" fill="white"/>
<rect x="0.5" y="0.5" width="24.3333" height="24.3333" rx="7.5" stroke="#E6E8EA"/>
<path d="M13.2218 9.88628C13.2218 11.1136 12.2269 12.1085 10.9996 12.1085C9.77227 12.1085 8.77734 11.1136 8.77734 9.88628C8.77734 8.65899 9.77227 7.66406 10.9996 7.66406C12.2269 7.66406 13.2218 8.65899 13.2218 9.88628Z" stroke="#625F6E" stroke-width="0.933333"/>
<path d="M14.334 12.1085C15.5613 12.1085 16.5562 11.1136 16.5562 9.88628C16.5562 8.65899 15.5613 7.66406 14.334 7.66406" stroke="#625F6E" stroke-width="0.933333" stroke-linecap="round" stroke-linejoin="round"/>
<path d="M12.1113 13.7734H9.88911C8.35498 13.7734 7.11133 15.0171 7.11133 16.5512C7.11133 17.1649 7.60879 17.6623 8.22244 17.6623H13.778C14.3916 17.6623 14.8891 17.1649 14.8891 16.5512C14.8891 15.0171 13.6455 13.7734 12.1113 13.7734Z" stroke="#625F6E" stroke-width="0.933333" stroke-linejoin="round"/>
<path d="M15.4434 13.7734C16.9775 13.7734 18.2211 15.0171 18.2211 16.5512C18.2211 17.1649 17.7237 17.6623 17.11 17.6623H16.2767" stroke="#625F6E" stroke-width="0.933333" stroke-linecap="round" stroke-linejoin="round"/>
</svg>
