<svg width="20" height="21" viewBox="0 0 20 21" fill="none" xmlns="http://www.w3.org/2000/svg">
<path d="M10.8327 6.16536C10.8327 8.00631 9.3403 9.4987 7.49935 9.4987C5.6584 9.4987 4.16602 8.00631 4.16602 6.16536C4.16602 4.32442 5.6584 2.83203 7.49935 2.83203C9.3403 2.83203 10.8327 4.32442 10.8327 6.16536Z" stroke="#E4E3EA" stroke-width="1.4"/>
<path d="M12.5 9.4987C14.3409 9.4987 15.8333 8.00631 15.8333 6.16536C15.8333 4.32442 14.3409 2.83203 12.5 2.83203" stroke="#E4E3EA" stroke-width="1.4" stroke-linecap="round" stroke-linejoin="round"/>
<path d="M9.16602 12H5.83268C3.5315 12 1.66602 13.8655 1.66602 16.1667C1.66602 17.0871 2.41221 17.8333 3.33268 17.8333H11.666C12.5865 17.8333 13.3327 17.0871 13.3327 16.1667C13.3327 13.8655 11.4672 12 9.16602 12Z" stroke="#E4E3EA" stroke-width="1.4" stroke-linejoin="round"/>
<path d="M14.166 12C16.4672 12 18.3327 13.8655 18.3327 16.1667C18.3327 17.0871 17.5865 17.8333 16.666 17.8333H15.416" stroke="#E4E3EA" stroke-width="1.4" stroke-linecap="round" stroke-linejoin="round"/>
</svg>
