<svg width="20" height="20" viewBox="0 0 20 20" fill="none" xmlns="http://www.w3.org/2000/svg">
<path d="M10.8327 5.83333C10.8327 7.67428 9.3403 9.16667 7.49935 9.16667C5.6584 9.16667 4.16602 7.67428 4.16602 5.83333C4.16602 3.99238 5.6584 2.5 7.49935 2.5C9.3403 2.5 10.8327 3.99238 10.8327 5.83333Z" stroke="#020204" stroke-width="1.5"/>
<path d="M12.5 9.16667C14.3409 9.16667 15.8333 7.67428 15.8333 5.83333C15.8333 3.99238 14.3409 2.5 12.5 2.5" stroke="#020204" stroke-width="1.5" stroke-linecap="round" stroke-linejoin="round"/>
<path d="M9.16602 11.6641H5.83268C3.5315 11.6641 1.66602 13.5295 1.66602 15.8307C1.66602 16.7512 2.41221 17.4974 3.33268 17.4974H11.666C12.5865 17.4974 13.3327 16.7512 13.3327 15.8307C13.3327 13.5295 11.4672 11.6641 9.16602 11.6641Z" stroke="#020204" stroke-width="1.5" stroke-linejoin="round"/>
<path d="M14.166 11.6641C16.4672 11.6641 18.3327 13.5295 18.3327 15.8307C18.3327 16.7512 17.5865 17.4974 16.666 17.4974H15.416" stroke="#020204" stroke-width="1.5" stroke-linecap="round" stroke-linejoin="round"/>
</svg>
