<svg width="28" height="28" viewBox="0 0 28 28" fill="none" xmlns="http://www.w3.org/2000/svg">
<rect x="0.5" y="0.5" width="27" height="27" rx="7.5" fill="white"/>
<rect x="0.5" y="0.5" width="27" height="27" rx="7.5" stroke="#E6E8EA"/>
<path d="M11.0292 10.3792C11.9854 9.61308 13.1747 9.19648 14.4 9.19844C15.675 9.19844 16.8468 9.64004 17.7708 10.3792L18.6426 9.50744L19.491 10.3558L18.6192 11.2276C19.2538 12.0221 19.6512 12.9797 19.7657 13.99C19.8801 15.0004 19.707 16.0226 19.2662 16.9389C18.8253 17.8552 18.1348 18.6284 17.2739 19.1696C16.413 19.7108 15.4168 19.9979 14.4 19.9979C13.3832 19.9979 12.387 19.7108 11.5261 19.1696C10.6652 18.6284 9.97466 17.8552 9.53384 16.9389C9.09301 16.0226 8.91987 15.0004 9.03432 13.99C9.14878 12.9797 9.54618 12.0221 10.1808 11.2276L9.309 10.3564L10.1574 9.50804L11.0292 10.3798V10.3792ZM14.4 18.7984C14.9516 18.7984 15.4977 18.6898 16.0073 18.4787C16.5168 18.2677 16.9798 17.9583 17.3699 17.5683C17.7599 17.1783 18.0692 16.7153 18.2803 16.2057C18.4914 15.6961 18.6 15.15 18.6 14.5984C18.6 14.0469 18.4914 13.5007 18.2803 12.9912C18.0692 12.4816 17.7599 12.0186 17.3699 11.6286C16.9798 11.2386 16.5168 10.9292 16.0073 10.7181C15.4977 10.5071 14.9516 10.3984 14.4 10.3984C13.2861 10.3984 12.2178 10.8409 11.4302 11.6286C10.6425 12.4162 10.2 13.4845 10.2 14.5984C10.2 15.7123 10.6425 16.7806 11.4302 17.5683C12.2178 18.3559 13.2861 18.7984 14.4 18.7984ZM15 13.9984H16.8L13.8 17.8984V15.1984H12L15 11.2954V13.9984ZM12 7.39844H16.8V8.59844H12V7.39844Z" fill="#625F6E"/>
</svg>
