<svg width="40" height="40" viewBox="0 0 40 40" fill="none" xmlns="http://www.w3.org/2000/svg">
<path d="M8 0.5H32C36.1421 0.5 39.5 3.85786 39.5 8V32C39.5 36.1421 36.1421 39.5 32 39.5H8C3.85786 39.5 0.5 36.1421 0.5 32V8C0.5 3.85786 3.85786 0.5 8 0.5Z" fill="white"/>
<path d="M8 0.5H32C36.1421 0.5 39.5 3.85786 39.5 8V32C39.5 36.1421 36.1421 39.5 32 39.5H8C3.85786 39.5 0.5 36.1421 0.5 32V8C0.5 3.85786 3.85786 0.5 8 0.5Z" stroke="#E6E8EA"/>
<path d="M13.25 16.25H15.5" stroke="#625F6E" stroke-width="1.5" stroke-linecap="round" stroke-linejoin="round"/>
<path d="M13.25 23.75H17.75" stroke="#625F6E" stroke-width="1.5" stroke-linecap="round" stroke-linejoin="round"/>
<path d="M24.5 23.75L26.75 23.75" stroke="#625F6E" stroke-width="1.5" stroke-linecap="round" stroke-linejoin="round"/>
<path d="M22.25 16.25L26.75 16.25" stroke="#625F6E" stroke-width="1.5" stroke-linecap="round" stroke-linejoin="round"/>
<path d="M15.5 16.25C15.5 15.5511 15.5 15.2016 15.6142 14.926C15.7664 14.5584 16.0584 14.2664 16.426 14.1142C16.7016 14 17.0511 14 17.75 14C18.4489 14 18.7984 14 19.074 14.1142C19.4416 14.2664 19.7336 14.5584 19.8858 14.926C20 15.2016 20 15.5511 20 16.25C20 16.9489 20 17.2984 19.8858 17.574C19.7336 17.9416 19.4416 18.2336 19.074 18.3858C18.7984 18.5 18.4489 18.5 17.75 18.5C17.0511 18.5 16.7016 18.5 16.426 18.3858C16.0584 18.2336 15.7664 17.9416 15.6142 17.574C15.5 17.2984 15.5 16.9489 15.5 16.25Z" stroke="#625F6E" stroke-width="1.5"/>
<path d="M20 23.75C20 23.0511 20 22.7016 20.1142 22.426C20.2664 22.0584 20.5584 21.7664 20.926 21.6142C21.2016 21.5 21.5511 21.5 22.25 21.5C22.9489 21.5 23.2984 21.5 23.574 21.6142C23.9416 21.7664 24.2336 22.0584 24.3858 22.426C24.5 22.7016 24.5 23.0511 24.5 23.75C24.5 24.4489 24.5 24.7984 24.3858 25.074C24.2336 25.4416 23.9416 25.7336 23.574 25.8858C23.2984 26 22.9489 26 22.25 26C21.5511 26 21.2016 26 20.926 25.8858C20.5584 25.7336 20.2664 25.4416 20.1142 25.074C20 24.7984 20 24.4489 20 23.75Z" stroke="#625F6E" stroke-width="1.5"/>
</svg>
