<svg width="24" height="24" viewBox="0 0 24 24" fill="none" xmlns="http://www.w3.org/2000/svg">
<path d="M12 0.5C18.3513 0.5 23.5 5.64873 23.5 12C23.5 18.3513 18.3513 23.5 12 23.5C5.64873 23.5 0.5 18.3513 0.5 12C0.5 5.64873 5.64873 0.5 12 0.5Z" fill="#DED8FC"/>
<path d="M12 0.5C18.3513 0.5 23.5 5.64873 23.5 12C23.5 18.3513 18.3513 23.5 12 23.5C5.64873 23.5 0.5 18.3513 0.5 12C0.5 5.64873 5.64873 0.5 12 0.5Z" stroke="#E6E8EA"/>
<path fill-rule="evenodd" clip-rule="evenodd" d="M8.32371 15.6253C9.86351 17.1657 12.1454 17.4986 14.0111 16.6355C14.2868 16.5244 14.5129 16.435 14.7276 16.435C15.3258 16.4383 16.0707 17.0186 16.4575 16.6317C16.8444 16.2448 16.2641 15.5 16.2641 14.8984C16.2641 14.6832 16.3502 14.4615 16.4608 14.1852C17.3244 12.3196 16.9909 10.0382 15.4512 8.49786C13.4847 6.53196 10.2901 6.53196 8.32371 8.49786C6.354 10.4681 6.35727 13.6589 8.32371 15.6253Z" stroke="#593BF2" stroke-width="0.84" stroke-linecap="round" stroke-linejoin="round"/>
<path d="M9.64864 12.2134V12.2525M9.49023 12.2218C9.49023 12.3098 9.56162 12.3811 9.64961 12.3811C9.7376 12.3811 9.80889 12.3098 9.80889 12.2218C9.80889 12.1338 9.7376 12.0625 9.64961 12.0625C9.56162 12.0625 9.49023 12.1338 9.49023 12.2218Z" stroke="#593BF2" stroke-width="0.84" stroke-linecap="round" stroke-linejoin="round"/>
<path d="M11.8908 12.2134V12.2525M11.7324 12.2218C11.7324 12.3098 11.8038 12.3811 11.8918 12.3811C11.9798 12.3811 12.0511 12.3098 12.0511 12.2218C12.0511 12.1338 11.9798 12.0625 11.8918 12.0625C11.8038 12.0625 11.7324 12.1338 11.7324 12.2218Z" stroke="#593BF2" stroke-width="0.84" stroke-linecap="round" stroke-linejoin="round"/>
<path d="M14.135 12.2134V12.2525M13.9766 12.2218C13.9766 12.3098 14.048 12.3811 14.1359 12.3811C14.224 12.3811 14.2953 12.3098 14.2953 12.2218C14.2953 12.1338 14.224 12.0625 14.1359 12.0625C14.048 12.0625 13.9766 12.1338 13.9766 12.2218Z" stroke="#593BF2" stroke-width="0.84" stroke-linecap="round" stroke-linejoin="round"/>
</svg>
