<svg width="24" height="24" viewBox="0 0 24 24" fill="none" xmlns="http://www.w3.org/2000/svg">
<path d="M0 12C0 5.37258 5.37258 0 12 0C18.6274 0 24 5.37258 24 12C24 18.6274 18.6274 24 12 24C5.37258 24 0 18.6274 0 12Z" fill="#EDEDED"/>
<path d="M6.80469 10.4844H17.202" stroke="#625F6E" stroke-width="0.875" stroke-linecap="round" stroke-linejoin="round"/>
<path d="M14.5918 12.7578H14.5972" stroke="#625F6E" stroke-width="0.875" stroke-linecap="round" stroke-linejoin="round"/>
<path d="M12.002 12.7578H12.0074" stroke="#625F6E" stroke-width="0.875" stroke-linecap="round" stroke-linejoin="round"/>
<path d="M9.4082 12.7578H9.41361" stroke="#625F6E" stroke-width="0.875" stroke-linecap="round" stroke-linejoin="round"/>
<path d="M14.5918 15.0312H14.5972" stroke="#625F6E" stroke-width="0.875" stroke-linecap="round" stroke-linejoin="round"/>
<path d="M12.002 15.0312H12.0074" stroke="#625F6E" stroke-width="0.875" stroke-linecap="round" stroke-linejoin="round"/>
<path d="M9.4082 15.0312H9.41361" stroke="#625F6E" stroke-width="0.875" stroke-linecap="round" stroke-linejoin="round"/>
<path d="M14.3594 6.16406V8.08368" stroke="#625F6E" stroke-width="0.875" stroke-linecap="round" stroke-linejoin="round"/>
<path d="M9.64648 6.16406V8.08368" stroke="#625F6E" stroke-width="0.875" stroke-linecap="round" stroke-linejoin="round"/>
<path fill-rule="evenodd" clip-rule="evenodd" d="M14.4723 7.08594H9.53306C7.81999 7.08594 6.75 8.04023 6.75 9.79437V15.0733C6.75 16.855 7.81999 17.8314 9.53306 17.8314H14.4669C16.1854 17.8314 17.25 16.8716 17.25 15.1175V9.79437C17.2554 8.04023 16.1908 7.08594 14.4723 7.08594Z" stroke="#625F6E" stroke-width="0.875" stroke-linecap="round" stroke-linejoin="round"/>
</svg>
