<svg width="20" height="20" viewBox="0 0 20 20" fill="none" xmlns="http://www.w3.org/2000/svg">
<path fill-rule="evenodd" clip-rule="evenodd" d="M6.38523 8.60113H4.27837C3.29614 8.60113 2.5 7.80497 2.5 6.82273V4.71587C2.5 3.73364 3.29614 2.9375 4.27837 2.9375H6.38523C7.36747 2.9375 8.16361 3.73364 8.16361 4.71587V6.82273C8.16361 7.80497 7.36747 8.60113 6.38523 8.60113Z" stroke="#625F6E" stroke-width="1.875" stroke-linecap="round" stroke-linejoin="round"/>
<path fill-rule="evenodd" clip-rule="evenodd" d="M12.9751 8.51517L11.4855 7.02562C10.7913 6.33143 10.7913 5.20518 11.4855 4.51017L12.9751 3.02065C13.6692 2.32645 14.7955 2.32645 15.4905 3.02065L16.98 4.51017C17.6742 5.20518 17.6742 6.33143 16.98 7.02562L15.4905 8.51517C14.7955 9.21017 13.6692 9.21017 12.9751 8.51517Z" stroke="#625F6E" stroke-width="1.875" stroke-linecap="round" stroke-linejoin="round"/>
<path fill-rule="evenodd" clip-rule="evenodd" d="M15.2837 17.4996H13.1768C12.1946 17.4996 11.3984 16.7034 11.3984 15.7212V13.6144C11.3984 12.6321 12.1946 11.8359 13.1768 11.8359H15.2837C16.2659 11.8359 17.062 12.6321 17.062 13.6144V15.7212C17.062 16.7034 16.2659 17.4996 15.2837 17.4996Z" stroke="#625F6E" stroke-width="1.875" stroke-linecap="round" stroke-linejoin="round"/>
<path fill-rule="evenodd" clip-rule="evenodd" d="M6.38523 17.4996H4.27837C3.29614 17.4996 2.5 16.7034 2.5 15.7212V13.6144C2.5 12.6321 3.29614 11.8359 4.27837 11.8359H6.38523C7.36747 11.8359 8.16361 12.6321 8.16361 13.6144V15.7212C8.16361 16.7034 7.36747 17.4996 6.38523 17.4996Z" stroke="#625F6E" stroke-width="1.875" stroke-linecap="round" stroke-linejoin="round"/>
</svg>
