<svg width="26" height="26" viewBox="0 0 26 26" fill="none" xmlns="http://www.w3.org/2000/svg">
<g opacity="0.92" filter="url(#filter0_i_10460_21722)">
<path d="M1 13C1 6.37258 6.37258 1 13 1C19.6274 1 25 6.37258 25 13C25 19.6274 19.6274 25 13 25C6.37258 25 1 19.6274 1 13Z" fill="#4E5CFE"/>
<path d="M1 13C1 6.37258 6.37258 1 13 1C19.6274 1 25 6.37258 25 13C25 19.6274 19.6274 25 13 25C6.37258 25 1 19.6274 1 13Z" fill="white" fill-opacity="0.02"/>
<path d="M13 0.700195C19.7931 0.700195 25.2998 6.2069 25.2998 13C25.2998 19.7931 19.7931 25.2998 13 25.2998C6.2069 25.2998 0.700195 19.7931 0.700195 13C0.700195 6.2069 6.2069 0.700195 13 0.700195Z" stroke="url(#paint0_linear_10460_21722)" stroke-width="0.6"/>
<path fill-rule="evenodd" clip-rule="evenodd" d="M14.75 14.75L18.25 11.25L14.75 7.75L11.25 11.25L11.25 7.75H7.75V11.25L11.25 11.25L7.75 14.75L11.25 18.25L14.75 14.75ZM14.75 14.75H11.25V11.25H14.75V14.75Z" fill="#ECF5F4"/>
<path d="M14.75 14.75H18.25V18.25H14.75V14.75Z" fill="#ECF5F4"/>
</g>
<defs>
<filter id="filter0_i_10460_21722" x="0.400391" y="-1.01333" width="25.1992" height="26.6149" filterUnits="userSpaceOnUse" color-interpolation-filters="sRGB">
<feFlood flood-opacity="0" result="BackgroundImageFix"/>
<feBlend mode="normal" in="SourceGraphic" in2="BackgroundImageFix" result="shape"/>
<feColorMatrix in="SourceAlpha" type="matrix" values="0 0 0 0 0 0 0 0 0 0 0 0 0 0 0 0 0 0 127 0" result="hardAlpha"/>
<feOffset dy="-2.11765"/>
<feGaussianBlur stdDeviation="0.705882"/>
<feComposite in2="hardAlpha" operator="arithmetic" k2="-1" k3="1"/>
<feColorMatrix type="matrix" values="0 0 0 0 0.305882 0 0 0 0 0.360784 0 0 0 0 0.996078 0 0 0 1 0"/>
<feBlend mode="normal" in2="shape" result="effect1_innerShadow_10460_21722"/>
</filter>
<linearGradient id="paint0_linear_10460_21722" x1="13" y1="1" x2="13" y2="40.5" gradientUnits="userSpaceOnUse">
<stop offset="0.0873106" stop-color="#4E5CFE"/>
<stop offset="1" stop-color="#717CFE" stop-opacity="0.2"/>
</linearGradient>
</defs>
</svg>
