<svg width="29" height="28" viewBox="0 0 29 28" fill="none" xmlns="http://www.w3.org/2000/svg">
<rect x="1" y="0.5" width="27" height="27" rx="7.5" fill="#AC3CFF" fill-opacity="0.4"/>
<rect x="1" y="0.5" width="27" height="27" rx="7.5" stroke="#E6E8EA"/>
<path d="M17.0671 19.4389C16.7629 19.7519 16.3429 19.9292 15.9039 19.9292H11.6889C9.72932 19.9292 8.5 18.5581 8.5 16.6176V11.3819C8.5 9.44077 9.72318 8.07031 11.6889 8.07031H17.3111C19.2775 8.07031 20.5 9.44077 20.5 11.3819V15.2642C20.5 15.6753 20.3391 16.0715 20.0507 16.3681L17.0671 19.4389Z" stroke="white" stroke-width="1.5" stroke-linecap="round" stroke-linejoin="round"/>
<path d="M16.2832 19.8809V17.6316C16.2825 16.5338 17.1818 15.6427 18.2925 15.6406H20.4477" stroke="white" stroke-width="1.5" stroke-linecap="round" stroke-linejoin="round"/>
<path d="M16.0705 12.1328H11.7819M14.4465 15.2776H11.7812" stroke="white" stroke-width="1.5" stroke-linecap="round" stroke-linejoin="round"/>
</svg>
