<svg width="18" height="18" viewBox="0 0 18 18" fill="none" xmlns="http://www.w3.org/2000/svg">
<path d="M9.75 5.25C9.75 6.90685 8.40685 8.25 6.75 8.25C5.09315 8.25 3.75 6.90685 3.75 5.25C3.75 3.59315 5.09315 2.25 6.75 2.25C8.40685 2.25 9.75 3.59315 9.75 5.25Z" stroke="#625F6E" stroke-width="1.4"/>
<path d="M11.25 8.25C12.9069 8.25 14.25 6.90685 14.25 5.25C14.25 3.59315 12.9069 2.25 11.25 2.25" stroke="#625F6E" stroke-width="1.4" stroke-linecap="round" stroke-linejoin="round"/>
<path d="M8.25 10.5H5.25C3.17893 10.5 1.5 12.1789 1.5 14.25C1.5 15.0784 2.17157 15.75 3 15.75L10.5 15.75C11.3284 15.75 12 15.0784 12 14.25C12 12.1789 10.3211 10.5 8.25 10.5Z" stroke="#625F6E" stroke-width="1.4" stroke-linejoin="round"/>
<path d="M12.75 10.5C14.8211 10.5 16.5 12.1789 16.5 14.25C16.5 15.0784 15.8284 15.75 15 15.75H13.875" stroke="#625F6E" stroke-width="1.4" stroke-linecap="round" stroke-linejoin="round"/>
</svg>
