<svg width="28" height="27" viewBox="0 0 28 27" fill="none" xmlns="http://www.w3.org/2000/svg">
<g filter="url(#filter0_ddii_10460_20936)">
<rect x="2" y="1" width="24" height="24" rx="5.33333" fill="#0E0D14"/>
<rect x="2" y="1" width="24" height="24" rx="5.33333" fill="url(#paint0_linear_10460_20936)" fill-opacity="0.12"/>
<rect x="2.33333" y="1.33333" width="23.3333" height="23.3333" rx="5" stroke="#FCFDFF" stroke-width="0.666667"/>
<mask id="path-3-inside-1_10460_20936" fill="white">
<path d="M8 7H13.8065L11.871 8.93548H9.93548V10.9677L8 13V7Z"/>
<path d="M20 19H14.1935L16.129 17.0645H18.0645V15.0323L20 13V19Z"/>
<path d="M20 7H14.1935L16.129 8.93548H18.0645V10.0968H20V7Z"/>
<path d="M8 19H13.8065L11.871 17.0645H9.93548V15.9032H8L8 19Z"/>
<path fill-rule="evenodd" clip-rule="evenodd" d="M16.4194 11.6452L14.1935 9.32258L8 15.129L8 15.9032H9.93548L11.871 14.3548L14 16.6774L20 10.6774V10.0968H18.0645L16.4194 11.6452ZM14.9596 12.9867L13.9869 12.0402L13.0404 13.013L14.0131 13.9595L14.9596 12.9867Z"/>
</mask>
<path d="M8 7H13.8065L11.871 8.93548H9.93548V10.9677L8 13V7Z" fill="url(#paint1_linear_10460_20936)"/>
<path d="M20 19H14.1935L16.129 17.0645H18.0645V15.0323L20 13V19Z" fill="url(#paint2_linear_10460_20936)"/>
<path d="M20 7H14.1935L16.129 8.93548H18.0645V10.0968H20V7Z" fill="url(#paint3_linear_10460_20936)"/>
<path d="M8 19H13.8065L11.871 17.0645H9.93548V15.9032H8L8 19Z" fill="url(#paint4_linear_10460_20936)"/>
<path fill-rule="evenodd" clip-rule="evenodd" d="M16.4194 11.6452L14.1935 9.32258L8 15.129L8 15.9032H9.93548L11.871 14.3548L14 16.6774L20 10.6774V10.0968H18.0645L16.4194 11.6452ZM14.9596 12.9867L13.9869 12.0402L13.0404 13.013L14.0131 13.9595L14.9596 12.9867Z" fill="url(#paint5_linear_10460_20936)"/>
<path d="M18.0645 10.0968V13.0387H20V10.0968V7.15488H18.0645V10.0968ZM9.93548 15.9032V12.9613H8V15.9032V18.8451H9.93548V15.9032ZM8 7V1.1162H2.1162V7H8ZM13.8065 7L17.9669 11.1605L28.0112 1.1162H13.8065V7ZM9.93548 8.93548V3.05169H4.05169V8.93548H9.93548ZM8 13H2.1162V27.7095L12.2607 17.0578L8 13ZM9.93548 10.9677L14.1962 15.0255L15.8193 13.3213V10.9677H9.93548ZM11.871 8.93548V14.8193H14.3081L16.0314 13.096L11.871 8.93548ZM20 19V24.8838H25.8838V19H20ZM14.1935 19L10.0331 14.8395L-0.0111914 24.8838H14.1935V19ZM18.0645 17.0645V22.9483H23.9483V17.0645H18.0645ZM20 13H25.8838V-1.70949L15.7393 8.94221L20 13ZM18.0645 15.0323L13.8038 10.9745L12.1807 12.6787V15.0323H18.0645ZM16.129 17.0645V11.1807H13.6919L11.9686 12.904L16.129 17.0645ZM20 7H25.8838V1.1162H20V7ZM14.1935 7V1.1162H-0.0111942L10.0331 11.1605L14.1935 7ZM18.0645 8.93548H23.9483V3.05169H18.0645V8.93548ZM18.0645 10.0968L22.0971 14.3814L23.9483 12.639V10.0968H18.0645ZM16.129 8.93548L11.9686 13.096L13.6919 14.8193H16.129V8.93548ZM8 19H2.1162V24.8838H8V19ZM13.8065 19V24.8838H28.0112L17.9669 14.8395L13.8065 19ZM9.93548 17.0645H4.05169V22.9483H9.93548V17.0645ZM8 15.9032H13.8838H8ZM9.93548 15.9032L6.2599 11.3088L4.05169 13.0753V15.9032H9.93548ZM11.871 17.0645L16.0314 12.904L14.3081 11.1807H11.871V17.0645ZM14.1935 9.32258L18.4416 5.25155L14.415 1.04988L10.1694 5.03013L14.1935 9.32258ZM16.4194 11.6452L12.1713 15.7162L16.2058 19.9261L20.4519 15.9297L16.4194 11.6452ZM8 15.129L3.97583 10.8366L2.1162 12.58V15.129H8ZM11.871 14.3548L16.2082 10.379L12.491 6.32386L8.19539 9.76037L11.871 14.3548ZM14 16.6774L9.66273 20.6532L13.8152 25.1832L18.1605 20.8379L14 16.6774ZM20 10.6774L24.1605 14.8379L25.8838 13.1146V10.6774H20ZM13.9869 12.0402L18.09 7.82316L13.8729 3.72003L9.76982 7.93707L13.9869 12.0402ZM14.9596 12.9867L19.1767 17.0898L23.2798 12.8728L19.0628 8.76966L14.9596 12.9867ZM13.0404 13.013L8.82332 8.90985L4.7202 13.1269L8.93723 17.23L13.0404 13.013ZM14.0131 13.9595L9.91001 18.1765L14.1271 22.2797L18.2302 18.0626L14.0131 13.9595ZM8 7V12.8838H13.8065V7V1.1162H8V7ZM8 13H13.8838V7H8H2.1162V13H8ZM9.93548 8.93548H4.05169V10.9677H9.93548H15.8193V8.93548H9.93548ZM9.93548 10.9677L5.6748 6.90995L3.73932 8.94221L8 13L12.2607 17.0578L14.1962 15.0255L9.93548 10.9677ZM13.8065 7L9.64598 2.83953L7.7105 4.77501L11.871 8.93548L16.0314 13.096L17.9669 11.1605L13.8065 7ZM11.871 8.93548V3.05169H9.93548V8.93548V14.8193H11.871V8.93548ZM20 19V13.1162H14.1935V19V24.8838H20V19ZM20 13H14.1162V19H20H25.8838V13H20ZM18.0645 17.0645H23.9483V15.0323H18.0645H12.1807V17.0645H18.0645ZM18.0645 15.0323L22.3252 19.09L24.2607 17.0578L20 13L15.7393 8.94221L13.8038 10.9745L18.0645 15.0323ZM14.1935 19L18.354 23.1605L20.2895 21.225L16.129 17.0645L11.9686 12.904L10.0331 14.8395L14.1935 19ZM16.129 17.0645V22.9483H18.0645V17.0645V11.1807H16.129V17.0645ZM20 7V1.1162H14.1935V7V12.8838H20V7ZM20 10.0968H25.8838V7H20H14.1162V10.0968H20ZM18.0645 8.93548H12.1807V10.0968H18.0645H23.9483V8.93548H18.0645ZM14.1935 7L10.0331 11.1605L11.9686 13.096L16.129 8.93548L20.2895 4.77501L18.354 2.83953L14.1935 7ZM16.129 8.93548V14.8193H18.0645V8.93548V3.05169H16.129V8.93548ZM8 19V24.8838H13.8065V19V13.1162H8V19ZM8 15.9032H2.1162V19H8L13.8838 19V15.9032H8ZM9.93548 17.0645H15.8193V15.9032H9.93548H4.05169V17.0645H9.93548ZM13.8065 19L17.9669 14.8395L16.0314 12.904L11.871 17.0645L7.71049 21.225L9.64598 23.1605L13.8065 19ZM11.871 17.0645V11.1807H9.93548V17.0645V22.9483H11.871V17.0645ZM14.1935 9.32258L9.94552 13.3936L12.1713 15.7162L16.4194 11.6452L20.6674 7.57413L18.4416 5.25155L14.1935 9.32258ZM8 15.129L12.0242 19.4215L18.2177 13.615L14.1935 9.32258L10.1694 5.03013L3.97583 10.8366L8 15.129ZM8 15.9032H13.8838V15.129H8H2.1162V15.9032H8ZM11.871 14.3548L8.19539 9.76037L6.2599 11.3088L9.93548 15.9032L13.6111 20.4977L15.5465 18.9493L11.871 14.3548ZM14 16.6774L18.3373 12.7016L16.2082 10.379L11.871 14.3548L7.5337 18.3307L9.66273 20.6532L14 16.6774ZM20 10.0968H14.1162V10.6774H20H25.8838V10.0968H20ZM16.4194 11.6452L20.4519 15.9297L22.0971 14.3814L18.0645 10.0968L14.032 5.81219L12.3868 7.36058L16.4194 11.6452ZM13.9869 12.0402L9.88374 16.2572L10.8565 17.2037L14.9596 12.9867L19.0628 8.76966L18.09 7.82316L13.9869 12.0402ZM13.0404 13.013L17.2574 17.1161L18.2039 16.1433L13.9869 12.0402L9.76982 7.93707L8.82332 8.90985L13.0404 13.013ZM14.0131 13.9595L18.1163 9.74244L17.1435 8.79594L13.0404 13.013L8.93723 17.23L9.91001 18.1765L14.0131 13.9595ZM14.9596 12.9867L10.7426 8.88357L9.7961 9.85636L14.0131 13.9595L18.2302 18.0626L19.1767 17.0898L14.9596 12.9867ZM20 10.6774L15.8395 6.51695L9.83953 12.5169L14 16.6774L18.1605 20.8379L24.1605 14.8379L20 10.6774Z" fill="url(#paint6_linear_10460_20936)" mask="url(#path-3-inside-1_10460_20936)"/>
</g>
<defs>
<filter id="filter0_ddii_10460_20936" x="0.666667" y="-0.333333" width="26.6667" height="27.3333" filterUnits="userSpaceOnUse" color-interpolation-filters="sRGB">
<feFlood flood-opacity="0" result="BackgroundImageFix"/>
<feColorMatrix in="SourceAlpha" type="matrix" values="0 0 0 0 0 0 0 0 0 0 0 0 0 0 0 0 0 0 127 0" result="hardAlpha"/>
<feMorphology radius="0.666667" operator="dilate" in="SourceAlpha" result="effect1_dropShadow_10460_20936"/>
<feOffset/>
<feComposite in2="hardAlpha" operator="out"/>
<feColorMatrix type="matrix" values="0 0 0 0 0.141176 0 0 0 0 0.14902 0 0 0 0 0.156863 0 0 0 1 0"/>
<feBlend mode="normal" in2="BackgroundImageFix" result="effect1_dropShadow_10460_20936"/>
<feColorMatrix in="SourceAlpha" type="matrix" values="0 0 0 0 0 0 0 0 0 0 0 0 0 0 0 0 0 0 127 0" result="hardAlpha"/>
<feOffset dy="0.666667"/>
<feGaussianBlur stdDeviation="0.666667"/>
<feComposite in2="hardAlpha" operator="out"/>
<feColorMatrix type="matrix" values="0 0 0 0 0.105882 0 0 0 0 0.109804 0 0 0 0 0.113725 0 0 0 0.48 0"/>
<feBlend mode="normal" in2="effect1_dropShadow_10460_20936" result="effect2_dropShadow_10460_20936"/>
<feBlend mode="normal" in="SourceGraphic" in2="effect2_dropShadow_10460_20936" result="shape"/>
<feColorMatrix in="SourceAlpha" type="matrix" values="0 0 0 0 0 0 0 0 0 0 0 0 0 0 0 0 0 0 127 0" result="hardAlpha"/>
<feOffset dx="0.666667" dy="-1.33333"/>
<feGaussianBlur stdDeviation="1.33333"/>
<feComposite in2="hardAlpha" operator="arithmetic" k2="-1" k3="1"/>
<feColorMatrix type="matrix" values="0 0 0 0 1 0 0 0 0 1 0 0 0 0 1 0 0 0 0.2 0"/>
<feBlend mode="normal" in2="shape" result="effect3_innerShadow_10460_20936"/>
<feColorMatrix in="SourceAlpha" type="matrix" values="0 0 0 0 0 0 0 0 0 0 0 0 0 0 0 0 0 0 127 0" result="hardAlpha"/>
<feOffset dy="0.666667"/>
<feGaussianBlur stdDeviation="1.33333"/>
<feComposite in2="hardAlpha" operator="arithmetic" k2="-1" k3="1"/>
<feColorMatrix type="matrix" values="0 0 0 0 1 0 0 0 0 1 0 0 0 0 1 0 0 0 0.25 0"/>
<feBlend mode="normal" in2="effect3_innerShadow_10460_20936" result="effect4_innerShadow_10460_20936"/>
</filter>
<linearGradient id="paint0_linear_10460_20936" x1="14" y1="1" x2="14" y2="25" gradientUnits="userSpaceOnUse">
<stop stop-color="white"/>
<stop offset="1" stop-color="white" stop-opacity="0"/>
</linearGradient>
<linearGradient id="paint1_linear_10460_20936" x1="7.7" y1="-1.4" x2="11.9246" y2="30.984" gradientUnits="userSpaceOnUse">
<stop stop-color="white"/>
<stop offset="0.302832" stop-color="white" stop-opacity="0.929073"/>
<stop offset="1" stop-color="white" stop-opacity="0"/>
</linearGradient>
<linearGradient id="paint2_linear_10460_20936" x1="7.7" y1="-1.4" x2="11.9246" y2="30.984" gradientUnits="userSpaceOnUse">
<stop stop-color="white"/>
<stop offset="0.302832" stop-color="white" stop-opacity="0.929073"/>
<stop offset="1" stop-color="white" stop-opacity="0"/>
</linearGradient>
<linearGradient id="paint3_linear_10460_20936" x1="7.7" y1="-1.4" x2="11.9246" y2="30.984" gradientUnits="userSpaceOnUse">
<stop stop-color="white"/>
<stop offset="0.302832" stop-color="white" stop-opacity="0.929073"/>
<stop offset="1" stop-color="white" stop-opacity="0"/>
</linearGradient>
<linearGradient id="paint4_linear_10460_20936" x1="7.7" y1="-1.4" x2="11.9246" y2="30.984" gradientUnits="userSpaceOnUse">
<stop stop-color="white"/>
<stop offset="0.302832" stop-color="white" stop-opacity="0.929073"/>
<stop offset="1" stop-color="white" stop-opacity="0"/>
</linearGradient>
<linearGradient id="paint5_linear_10460_20936" x1="7.7" y1="-1.4" x2="11.9246" y2="30.984" gradientUnits="userSpaceOnUse">
<stop stop-color="white"/>
<stop offset="0.302832" stop-color="white" stop-opacity="0.929073"/>
<stop offset="1" stop-color="white" stop-opacity="0"/>
</linearGradient>
<linearGradient id="paint6_linear_10460_20936" x1="35.1811" y1="-8.52841" x2="13.9077" y2="19.6292" gradientUnits="userSpaceOnUse">
<stop stop-color="white"/>
<stop offset="1" stop-color="white" stop-opacity="0"/>
</linearGradient>
</defs>
</svg>
