<svg width="20" height="21" viewBox="0 0 20 21" fill="none" xmlns="http://www.w3.org/2000/svg">
<path d="M5.83398 14.4974L5.83398 11.1641" stroke="#E4E3EA" stroke-width="1.4" stroke-linecap="round"/>
<path d="M10 14.4974L10 6.16406" stroke="#E4E3EA" stroke-width="1.4" stroke-linecap="round"/>
<path d="M14.168 14.4961L14.168 9.49609" stroke="#E4E3EA" stroke-width="1.4" stroke-linecap="round"/>
<path d="M2.08398 10.3307C2.08398 6.59878 2.08398 4.7328 3.24335 3.57343C4.40272 2.41406 6.2687 2.41406 10.0007 2.41406C13.7326 2.41406 15.5986 2.41406 16.7579 3.57343C17.9173 4.7328 17.9173 6.59878 17.9173 10.3307C17.9173 14.0627 17.9173 15.9287 16.7579 17.088C15.5986 18.2474 13.7326 18.2474 10.0007 18.2474C6.2687 18.2474 4.40272 18.2474 3.24335 17.088C2.08398 15.9287 2.08398 14.0627 2.08398 10.3307Z" stroke="#E4E3EA" stroke-width="1.4" stroke-linejoin="round"/>
</svg>
