<svg width="116" height="116" viewBox="0 0 116 116" fill="none" xmlns="http://www.w3.org/2000/svg">
<g filter="url(#filter0_d_10313_9496)">
<rect x="40" y="34" width="36" height="36" rx="18" fill="white" shape-rendering="crispEdges"/>
<rect x="40.5" y="34.5" width="35" height="35" rx="17.5" stroke="#E6E8EA" shape-rendering="crispEdges"/>
<path d="M46.5735 56C46.5735 55.4 46.6655 54.86 46.8495 54.38C47.0415 53.892 47.3735 53.428 47.8455 52.988C48.3255 52.548 48.9895 52.104 49.8375 51.656C50.2295 51.448 50.5455 51.256 50.7855 51.08C51.0255 50.904 51.2015 50.716 51.3135 50.516C51.4255 50.316 51.4815 50.072 51.4815 49.784C51.4815 49.488 51.4175 49.232 51.2895 49.016C51.1615 48.792 50.9695 48.616 50.7135 48.488C50.4655 48.36 50.1535 48.296 49.7775 48.296C49.1775 48.296 48.7015 48.452 48.3495 48.764C48.0055 49.076 47.7895 49.52 47.7015 50.096L46.6215 50.024C46.7175 49.192 47.0375 48.528 47.5815 48.032C48.1255 47.536 48.8575 47.288 49.7775 47.288C50.3615 47.288 50.8615 47.392 51.2775 47.6C51.6935 47.808 52.0095 48.1 52.2255 48.476C52.4495 48.844 52.5615 49.272 52.5615 49.76C52.5615 50.192 52.4895 50.568 52.3455 50.888C52.2015 51.2 51.9575 51.492 51.6135 51.764C51.2775 52.036 50.8135 52.328 50.2215 52.64C49.4535 53.048 48.8695 53.46 48.4695 53.876C48.0775 54.292 47.8695 54.664 47.8455 54.992H52.5615V56H46.5735ZM56.9072 56.192C56.2992 56.192 55.7552 56.096 55.2752 55.904C54.8032 55.712 54.4312 55.428 54.1592 55.052C53.8952 54.676 53.7632 54.212 53.7632 53.66C53.7632 53.044 53.9472 52.536 54.3152 52.136C54.6832 51.728 55.1712 51.452 55.7792 51.308L55.8032 51.548C55.3152 51.412 54.9192 51.192 54.6152 50.888C54.3192 50.576 54.1712 50.156 54.1712 49.628C54.1712 49.18 54.2832 48.78 54.5072 48.428C54.7392 48.076 55.0592 47.8 55.4672 47.6C55.8752 47.392 56.3552 47.288 56.9072 47.288C57.4592 47.288 57.9392 47.392 58.3472 47.6C58.7632 47.8 59.0832 48.076 59.3072 48.428C59.5312 48.78 59.6432 49.18 59.6432 49.628C59.6432 50.156 59.4952 50.576 59.1992 50.888C58.9032 51.192 58.5072 51.412 58.0112 51.548L58.0352 51.308C58.6512 51.452 59.1392 51.728 59.4992 52.136C59.8672 52.536 60.0512 53.044 60.0512 53.66C60.0512 54.212 59.9152 54.676 59.6432 55.052C59.3792 55.428 59.0112 55.712 58.5392 55.904C58.0672 56.096 57.5232 56.192 56.9072 56.192ZM56.9072 55.184C57.5392 55.184 58.0392 55.056 58.4072 54.8C58.7832 54.536 58.9712 54.136 58.9712 53.6C58.9712 53.104 58.8032 52.708 58.4672 52.412C58.1392 52.108 57.6192 51.956 56.9072 51.956C56.2032 51.956 55.6832 52.108 55.3472 52.412C55.0112 52.708 54.8432 53.104 54.8432 53.6C54.8432 54.136 55.0272 54.536 55.3952 54.8C55.7712 55.056 56.2752 55.184 56.9072 55.184ZM56.9072 50.996C57.4352 50.996 57.8432 50.884 58.1312 50.66C58.4192 50.428 58.5632 50.084 58.5632 49.628C58.5632 49.22 58.4232 48.896 58.1432 48.656C57.8632 48.416 57.4512 48.296 56.9072 48.296C56.3712 48.296 55.9592 48.416 55.6712 48.656C55.3912 48.896 55.2512 49.22 55.2512 49.628C55.2512 50.084 55.3952 50.428 55.6832 50.66C55.9712 50.884 56.3792 50.996 56.9072 50.996ZM62.9014 51.608C62.3654 51.608 61.9214 51.428 61.5694 51.068C61.2254 50.7 61.0534 50.176 61.0534 49.496C61.0534 48.808 61.2254 48.284 61.5694 47.924C61.9214 47.564 62.3654 47.384 62.9014 47.384C63.4454 47.384 63.8894 47.564 64.2334 47.924C64.5774 48.284 64.7494 48.808 64.7494 49.496C64.7494 50.176 64.5774 50.7 64.2334 51.068C63.8894 51.428 63.4454 51.608 62.9014 51.608ZM62.9014 50.864C63.2294 50.864 63.4734 50.744 63.6334 50.504C63.8014 50.264 63.8854 49.928 63.8854 49.496C63.8854 49.064 63.8014 48.728 63.6334 48.488C63.4734 48.248 63.2294 48.128 62.9014 48.128C62.5814 48.128 62.3374 48.248 62.1694 48.488C62.0014 48.728 61.9174 49.064 61.9174 49.496C61.9174 49.928 62.0014 50.264 62.1694 50.504C62.3374 50.744 62.5814 50.864 62.9014 50.864ZM67.7734 56.096C67.2374 56.096 66.7934 55.916 66.4414 55.556C66.0974 55.188 65.9254 54.664 65.9254 53.984C65.9254 53.296 66.0974 52.772 66.4414 52.412C66.7934 52.052 67.2374 51.872 67.7734 51.872C68.3174 51.872 68.7614 52.052 69.1054 52.412C69.4494 52.772 69.6214 53.296 69.6214 53.984C69.6214 54.664 69.4494 55.188 69.1054 55.556C68.7614 55.916 68.3174 56.096 67.7734 56.096ZM67.7734 55.352C68.1014 55.352 68.3454 55.232 68.5054 54.992C68.6734 54.752 68.7574 54.416 68.7574 53.984C68.7574 53.552 68.6734 53.216 68.5054 52.976C68.3454 52.736 68.1014 52.616 67.7734 52.616C67.4534 52.616 67.2094 52.736 67.0414 52.976C66.8734 53.216 66.7894 53.552 66.7894 53.984C66.7894 54.416 66.8734 54.752 67.0414 54.992C67.2094 55.232 67.4534 55.352 67.7734 55.352ZM61.9174 56L67.7974 47.48H68.7574L62.8774 56H61.9174Z" fill="#625F6E"/>
</g>
<defs>
<filter id="filter0_d_10313_9496" x="0" y="0" width="116" height="116" filterUnits="userSpaceOnUse" color-interpolation-filters="sRGB">
<feFlood flood-opacity="0" result="BackgroundImageFix"/>
<feColorMatrix in="SourceAlpha" type="matrix" values="0 0 0 0 0 0 0 0 0 0 0 0 0 0 0 0 0 0 127 0" result="hardAlpha"/>
<feOffset dy="6"/>
<feGaussianBlur stdDeviation="20"/>
<feComposite in2="hardAlpha" operator="out"/>
<feColorMatrix type="matrix" values="0 0 0 0 0.211908 0 0 0 0 0.215052 0 0 0 0 0.230769 0 0 0 0.16 0"/>
<feBlend mode="normal" in2="BackgroundImageFix" result="effect1_dropShadow_10313_9496"/>
<feBlend mode="normal" in="SourceGraphic" in2="effect1_dropShadow_10313_9496" result="shape"/>
</filter>
</defs>
</svg>
