<svg width="29" height="28" viewBox="0 0 29 28" fill="none" xmlns="http://www.w3.org/2000/svg">
<rect x="1" y="0.5" width="27" height="27" rx="7.5" fill="#32ABB9" fill-opacity="0.4"/>
<rect x="1" y="0.5" width="27" height="27" rx="7.5" stroke="#E6E8EA"/>
<path fill-rule="evenodd" clip-rule="evenodd" d="M16.4211 15.1465C16.6469 14.4412 16.3829 13.6347 15.6425 13.3959C15.2532 13.2713 14.8269 13.3433 14.4992 13.5886C14.1715 13.3453 13.7479 13.2739 13.3585 13.3959C12.6182 13.6347 12.3522 14.4412 12.578 15.1465C12.9296 16.2639 14.4992 17.1255 14.4992 17.1255C14.4992 17.1255 16.0571 16.2769 16.4211 15.1465Z" stroke="white" stroke-width="1.5" stroke-linecap="round" stroke-linejoin="round"/>
<path d="M15.6911 8.00002C16.0629 8.00002 16.4191 8.1512 16.6767 8.41983L19.204 11.0529C19.4487 11.3073 19.5849 11.6466 19.5849 11.9996V17.4422C19.5947 18.8133 18.5163 19.9442 17.1471 20L11.8635 19.9993C10.4814 19.9689 9.38614 18.8243 9.41664 17.4422V10.4378C9.44908 9.07842 10.5632 7.99418 11.9232 8.00002H15.6911Z" stroke="white" stroke-width="1.5" stroke-linecap="round" stroke-linejoin="round"/>
<path d="M16.0137 8.03906V9.96747C16.0131 10.9083 16.7748 11.6727 17.7163 11.6746H19.5422" stroke="white" stroke-width="1.5" stroke-linecap="round" stroke-linejoin="round"/>
</svg>
