<svg width="30" height="30" viewBox="0 0 30 30" fill="none" xmlns="http://www.w3.org/2000/svg">
<path d="M0 8.20514C0 3.67357 3.67356 0 8.20513 0H21.1282C25.6598 0 29.3333 3.67356 29.3333 8.20513V21.1282C29.3333 25.6598 25.6598 29.3333 21.1282 29.3333H8.20514C3.67357 29.3333 0 25.6598 0 21.1282V8.20514Z" fill="url(#paint0_linear_10967_25582)"/>
<path d="M8.20508 0.205078H21.1279C25.5462 0.205078 29.1279 3.78682 29.1279 8.20508V21.1279C29.1279 25.5462 25.5462 29.1279 21.1279 29.1279H8.20508C3.78683 29.1279 0.205078 25.5462 0.205078 21.1279V8.20508C0.205109 3.78684 3.78684 0.205106 8.20508 0.205078Z" stroke="#593BF2" stroke-opacity="0.1" stroke-width="0.410256"/>
<path d="M21.3333 12L18.6667 14.6667V10.6667H14.6667L17.3333 8H21.3333V12Z" fill="url(#paint1_linear_10967_25582)"/>
<path d="M10.6667 14.6667L14.6667 10.6667L18.6667 14.6667L14.6667 18.6667L10.6667 14.6667Z" fill="url(#paint2_linear_10967_25582)"/>
<path d="M10.6667 14.6667L8 17.3333V21.3333H12L14.6667 18.6667L17.3333 21.3333H21.3333V17.3333L18.6667 14.6667V18.6667H14.6667H10.6667V14.6667Z" fill="url(#paint3_linear_10967_25582)"/>
<path d="M10.6667 14.6667L8 12V8H12L14.6667 10.6667H10.6667V14.6667Z" fill="url(#paint4_linear_10967_25582)"/>
<defs>
<linearGradient id="paint0_linear_10967_25582" x1="-8.54033e-08" y1="26.6069" x2="31.5668" y2="23.9981" gradientUnits="userSpaceOnUse">
<stop stop-color="#593BF2"/>
<stop offset="1" stop-color="#863AFA"/>
</linearGradient>
<linearGradient id="paint1_linear_10967_25582" x1="14.6667" y1="8" x2="14.6667" y2="21.3333" gradientUnits="userSpaceOnUse">
<stop stop-color="white" stop-opacity="0.9"/>
<stop offset="1" stop-color="white" stop-opacity="0.8"/>
</linearGradient>
<linearGradient id="paint2_linear_10967_25582" x1="14.6667" y1="8" x2="14.6667" y2="21.3333" gradientUnits="userSpaceOnUse">
<stop stop-color="white" stop-opacity="0.9"/>
<stop offset="1" stop-color="white" stop-opacity="0.8"/>
</linearGradient>
<linearGradient id="paint3_linear_10967_25582" x1="14.6667" y1="8" x2="14.6667" y2="21.3333" gradientUnits="userSpaceOnUse">
<stop stop-color="white" stop-opacity="0.9"/>
<stop offset="1" stop-color="white" stop-opacity="0.8"/>
</linearGradient>
<linearGradient id="paint4_linear_10967_25582" x1="14.6667" y1="8" x2="14.6667" y2="21.3333" gradientUnits="userSpaceOnUse">
<stop stop-color="white" stop-opacity="0.9"/>
<stop offset="1" stop-color="white" stop-opacity="0.8"/>
</linearGradient>
</defs>
</svg>
