<svg width="20" height="21" viewBox="0 0 20 21" fill="none" xmlns="http://www.w3.org/2000/svg">
<path d="M5.83203 7.58594L8.28371 9.03546C9.71305 9.88054 10.2843 9.88054 11.7137 9.03546L14.1654 7.58594" stroke="#625F6E" stroke-width="1.4" stroke-linecap="round" stroke-linejoin="round"/>
<path d="M1.67915 11.731C1.73363 14.2856 1.76087 15.5629 2.70348 16.5091C3.64609 17.4553 4.95796 17.4882 7.58171 17.5542C9.19878 17.5948 10.7999 17.5948 12.417 17.5542C15.0407 17.4882 16.3526 17.4553 17.2952 16.5091C18.2378 15.5629 18.2651 14.2856 18.3195 11.731C18.3371 10.9096 18.3371 10.093 18.3195 9.27163C18.2651 6.71702 18.2378 5.43971 17.2952 4.49352C16.3526 3.54733 15.0407 3.51437 12.417 3.44844C10.7999 3.40781 9.19877 3.40781 7.5817 3.44844C4.95796 3.51436 3.64608 3.54731 2.70348 4.49351C1.76087 5.4397 1.73363 6.71701 1.67915 9.27162C1.66164 10.093 1.66164 10.9096 1.67915 11.731Z" stroke="#625F6E" stroke-width="1.4" stroke-linejoin="round"/>
</svg>
