<svg width="20" height="20" viewBox="0 0 20 20" fill="none" xmlns="http://www.w3.org/2000/svg">
<path fill-rule="evenodd" clip-rule="evenodd" d="M8.23018 12.6719C5.02685 12.6719 2.29102 13.156 2.29102 15.096C2.29102 17.036 5.01018 17.5377 8.23018 17.5377C11.4343 17.5377 14.1693 17.0527 14.1693 15.1135C14.1693 13.1744 11.451 12.6719 8.23018 12.6719Z" stroke="#E4E3EA" stroke-width="1.5" stroke-linecap="round" stroke-linejoin="round"/>
<path fill-rule="evenodd" clip-rule="evenodd" d="M8.22971 9.9063C10.3322 9.9063 12.0364 8.20214 12.0364 6.09964C12.0364 3.99714 10.3322 2.29297 8.22971 2.29297C6.12804 2.29297 4.42385 3.99714 4.42385 6.09964C4.41638 8.19464 6.10804 9.8988 8.20388 9.9063H8.22971Z" stroke="#E4E3EA" stroke-width="1.5" stroke-linecap="round" stroke-linejoin="round"/>
<path d="M16.002 7.22656V10.5682" stroke="#E4E3EA" stroke-width="1.5" stroke-linecap="round" stroke-linejoin="round"/>
<path d="M17.7072 8.89453H14.2988" stroke="#E4E3EA" stroke-width="1.5" stroke-linecap="round" stroke-linejoin="round"/>
</svg>
