<svg width="16" height="16" viewBox="0 0 16 16" fill="none" xmlns="http://www.w3.org/2000/svg">
<path fill-rule="evenodd" clip-rule="evenodd" d="M13.4167 11.3281H5.41667C5.048 11.3281 4.75 11.6261 4.75 11.9948C4.75 12.3635 5.048 12.6615 5.41667 12.6615H13.4167C13.7854 12.6615 14.0834 12.3635 14.0834 11.9948C14.0834 11.6261 13.7854 11.3281 13.4167 11.3281Z" fill="#625F6E"/>
<path fill-rule="evenodd" clip-rule="evenodd" d="M13.4167 7.32812H5.41667C5.048 7.32812 4.75 7.62613 4.75 7.99479C4.75 8.36346 5.048 8.66146 5.41667 8.66146H13.4167C13.7854 8.66146 14.0834 8.36346 14.0834 7.99479C14.0834 7.62613 13.7854 7.32812 13.4167 7.32812Z" fill="#625F6E"/>
<path fill-rule="evenodd" clip-rule="evenodd" d="M5.41667 4.66146H13.4167C13.7854 4.66146 14.0834 4.36346 14.0834 3.99479C14.0834 3.62613 13.7854 3.32812 13.4167 3.32812H5.41667C5.048 3.32812 4.75 3.62613 4.75 3.99479C4.75 4.36346 5.048 4.66146 5.41667 4.66146Z" fill="#625F6E"/>
<path fill-rule="evenodd" clip-rule="evenodd" d="M2.75668 3.15625C2.29335 3.15625 1.91602 3.53558 1.91602 4.00291C1.91602 4.46558 2.29335 4.84225 2.75668 4.84225C3.22002 4.84225 3.59802 4.46558 3.59802 4.00291C3.59802 3.53558 3.22002 3.15625 2.75668 3.15625Z" fill="#625F6E"/>
<path fill-rule="evenodd" clip-rule="evenodd" d="M2.75668 7.25C2.29335 7.25 1.91602 7.62667 1.91602 8.09C1.91602 8.55267 2.29335 8.93 2.75668 8.93C3.22002 8.93 3.59802 8.55267 3.59802 8.09C3.59802 7.62667 3.22002 7.25 2.75668 7.25Z" fill="#625F6E"/>
<path fill-rule="evenodd" clip-rule="evenodd" d="M2.75668 11.1562C2.29335 11.1562 1.91602 11.5356 1.91602 12.0029C1.91602 12.4656 2.29335 12.8422 2.75668 12.8422C3.22002 12.8422 3.59802 12.4656 3.59802 12.0029C3.59802 11.5356 3.22002 11.1562 2.75668 11.1562Z" fill="#625F6E"/>
</svg>
