<svg width="66" height="66" viewBox="0 0 66 66" fill="none" xmlns="http://www.w3.org/2000/svg">
<g filter="url(#filter0_ifn_10700_22746)">
<path d="M3 15C3 8.37258 8.37258 3 15 3H51C57.6274 3 63 8.37258 63 15V51C63 57.6274 57.6274 63 51 63H15C8.37258 63 3 57.6274 3 51V15Z" fill="#593BF2"/>
<path d="M51 2C58.1797 2 64 7.8203 64 15V51C64 58.1797 58.1797 64 51 64H15C7.8203 64 2 58.1797 2 51V15C2 7.8203 7.8203 2 15 2H51Z" stroke="url(#paint0_linear_10700_22746)" stroke-width="2"/>
<path d="M45.5 28L40.5 33V25.5H33L38 20.5H45.5V28Z" fill="url(#paint1_linear_10700_22746)"/>
<path d="M25.5 33L33 25.5L40.5 33L33 40.5L25.5 33Z" fill="url(#paint2_linear_10700_22746)"/>
<path d="M25.5 33L20.5 38V45.5H28L33 40.5L38 45.5H45.5V38L40.5 33V40.5H33H25.5V33Z" fill="url(#paint3_linear_10700_22746)"/>
<path d="M25.5 33L20.5 28V20.5H28L33 25.5H25.5V33Z" fill="url(#paint4_linear_10700_22746)"/>
</g>
<defs>
<filter id="filter0_ifn_10700_22746" x="0" y="0" width="66" height="81.6667" filterUnits="userSpaceOnUse" color-interpolation-filters="sRGB">
<feFlood flood-opacity="0" result="BackgroundImageFix"/>
<feBlend mode="normal" in="SourceGraphic" in2="BackgroundImageFix" result="shape"/>
<feColorMatrix in="SourceAlpha" type="matrix" values="0 0 0 0 0 0 0 0 0 0 0 0 0 0 0 0 0 0 127 0" result="hardAlpha"/>
<feOffset dy="16.6667"/>
<feGaussianBlur stdDeviation="33.3333"/>
<feComposite in2="hardAlpha" operator="arithmetic" k2="-1" k3="1"/>
<feColorMatrix type="matrix" values="0 0 0 0 1 0 0 0 0 1 0 0 0 0 1 0 0 0 0.2 0"/>
<feBlend mode="normal" in2="shape" result="effect1_innerShadow_10700_22746"/>
<feGaussianBlur stdDeviation="0.5" result="effect2_foregroundBlur_10700_22746"/>
<feTurbulence type="fractalNoise" baseFrequency="1 1" stitchTiles="stitch" numOctaves="3" result="noise" seed="9338" />
<feColorMatrix in="noise" type="luminanceToAlpha" result="alphaNoise" />
<feComponentTransfer in="alphaNoise" result="coloredNoise1">
<feFuncA type="discrete" tableValues="0 0 0 0 0 0 0 0 0 0 0 0 1 1 1 1 1 1 1 1 1 1 1 1 1 1 1 1 1 1 1 1 1 1 1 1 1 1 0 0 0 0 0 0 0 0 0 0 0 0 0 0 0 0 0 0 0 0 0 0 0 0 0 0 0 0 0 0 0 0 0 0 0 0 0 0 0 0 0 0 0 0 0 0 0 0 0 0 0 0 0 0 0 0 0 0 0 0 0 0 "/>
</feComponentTransfer>
<feComposite operator="in" in2="effect2_foregroundBlur_10700_22746" in="coloredNoise1" result="noise1Clipped" />
<feFlood flood-color="rgba(255, 255, 255, 0.05)" result="color1Flood" />
<feComposite operator="in" in2="noise1Clipped" in="color1Flood" result="color1" />
<feMerge result="effect3_noise_10700_22746">
<feMergeNode in="effect2_foregroundBlur_10700_22746" />
<feMergeNode in="color1" />
</feMerge>
</filter>
<linearGradient id="paint0_linear_10700_22746" x1="33" y1="63" x2="33" y2="3" gradientUnits="userSpaceOnUse">
<stop stop-color="#DED8FC"/>
<stop offset="1" stop-color="#CDC4FB"/>
</linearGradient>
<linearGradient id="paint1_linear_10700_22746" x1="33" y1="20.5" x2="33" y2="45.5" gradientUnits="userSpaceOnUse">
<stop stop-color="white" stop-opacity="0.9"/>
<stop offset="1" stop-color="white" stop-opacity="0.8"/>
</linearGradient>
<linearGradient id="paint2_linear_10700_22746" x1="33" y1="20.5" x2="33" y2="45.5" gradientUnits="userSpaceOnUse">
<stop stop-color="white" stop-opacity="0.9"/>
<stop offset="1" stop-color="white" stop-opacity="0.8"/>
</linearGradient>
<linearGradient id="paint3_linear_10700_22746" x1="33" y1="20.5" x2="33" y2="45.5" gradientUnits="userSpaceOnUse">
<stop stop-color="white" stop-opacity="0.9"/>
<stop offset="1" stop-color="white" stop-opacity="0.8"/>
</linearGradient>
<linearGradient id="paint4_linear_10700_22746" x1="33" y1="20.5" x2="33" y2="45.5" gradientUnits="userSpaceOnUse">
<stop stop-color="white" stop-opacity="0.9"/>
<stop offset="1" stop-color="white" stop-opacity="0.8"/>
</linearGradient>
</defs>
</svg>
