<svg width="18" height="18" viewBox="0 0 18 18" fill="none" xmlns="http://www.w3.org/2000/svg">
<path fill-rule="evenodd" clip-rule="evenodd" d="M11.1337 11.0347C11.1337 11.3453 10.8818 11.5972 10.5712 11.5972C10.2607 11.5972 10.0087 11.3453 10.0087 11.0347V6.96375C10.0087 6.65325 10.2607 6.40125 10.5712 6.40125C10.8818 6.40125 11.1337 6.65325 11.1337 6.96375V11.0347ZM7.992 11.0347C7.992 11.3453 7.74 11.5972 7.4295 11.5972C7.119 11.5972 6.867 11.3453 6.867 11.0347L6.867 6.96375C6.867 6.65325 7.119 6.40125 7.4295 6.40125C7.74 6.40125 7.992 6.65325 7.992 6.96375L7.992 11.0347ZM9 1.875C5.0715 1.875 1.875 5.07075 1.875 9C1.875 12.9285 5.0715 16.125 9 16.125C12.9292 16.125 16.125 12.9285 16.125 9C16.125 5.07075 12.9292 1.875 9 1.875Z" fill="white"/>
</svg>
