<svg width="20" height="20" viewBox="0 0 20 20" fill="none" xmlns="http://www.w3.org/2000/svg">
<g clip-path="url(#clip0_10967_25721)">
<path d="M9.99935 12.5013C11.3801 12.5013 12.4993 11.382 12.4993 10.0013C12.4993 8.62059 11.3801 7.5013 9.99935 7.5013C8.61864 7.5013 7.49935 8.62059 7.49935 10.0013C7.49935 11.382 8.61864 12.5013 9.99935 12.5013Z" stroke="#E4E3EA" stroke-width="1.4" stroke-linecap="round" stroke-linejoin="round"/>
<path d="M15.6054 12.274C15.5046 12.5025 15.4745 12.756 15.519 13.0017C15.5636 13.2475 15.6808 13.4743 15.8554 13.6528L15.9009 13.6983C16.0417 13.839 16.1535 14.0061 16.2297 14.19C16.306 14.374 16.3452 14.5711 16.3452 14.7702C16.3452 14.9694 16.306 15.1665 16.2297 15.3505C16.1535 15.5344 16.0417 15.7015 15.9009 15.8422C15.7601 15.9831 15.593 16.0948 15.4091 16.1711C15.2252 16.2473 15.028 16.2866 14.8289 16.2866C14.6298 16.2866 14.4326 16.2473 14.2487 16.1711C14.0647 16.0948 13.8976 15.9831 13.7569 15.8422L13.7115 15.7968C13.5329 15.6221 13.3062 15.505 13.0604 15.4604C12.8146 15.4158 12.5612 15.4459 12.3327 15.5468C12.1086 15.6428 11.9175 15.8022 11.7829 16.0055C11.6483 16.2087 11.5761 16.4469 11.5751 16.6907V16.8195C11.5751 17.2213 11.4155 17.6067 11.1313 17.8909C10.8472 18.175 10.4618 18.3346 10.06 18.3346C9.65811 18.3346 9.27273 18.175 8.98858 17.8909C8.70444 17.6067 8.5448 17.2213 8.5448 16.8195V16.7513C8.53894 16.5005 8.45777 16.2574 8.31186 16.0533C8.16594 15.8493 7.96203 15.6939 7.72662 15.6074C7.49813 15.5065 7.24466 15.4764 6.9989 15.521C6.75315 15.5656 6.52638 15.6827 6.34783 15.8574L6.30238 15.9028C6.16166 16.0437 5.99456 16.1554 5.81062 16.2317C5.62669 16.3079 5.42952 16.3472 5.23041 16.3472C5.0313 16.3472 4.83413 16.3079 4.6502 16.2317C4.46626 16.1554 4.29916 16.0437 4.15844 15.9028C4.01757 15.7621 3.90581 15.595 3.82956 15.4111C3.75331 15.2271 3.71407 15.03 3.71407 14.8308C3.71407 14.6317 3.75331 14.4346 3.82956 14.2506C3.90581 14.0667 4.01757 13.8996 4.15844 13.7589L4.20389 13.7134C4.37854 13.5349 4.4957 13.3081 4.54026 13.0624C4.58482 12.8166 4.55474 12.5631 4.45389 12.3346C4.35786 12.1106 4.19841 11.9195 3.99516 11.7849C3.79191 11.6503 3.55373 11.578 3.30996 11.5771H3.18117C2.77932 11.5771 2.39394 11.4174 2.10979 11.1333C1.82565 10.8491 1.66602 10.4638 1.66602 10.0619C1.66602 9.66007 1.82565 9.27468 2.10979 8.99053C2.39394 8.70639 2.77932 8.54676 3.18117 8.54676H3.24935C3.5001 8.54089 3.74329 8.45973 3.9473 8.31381C4.15131 8.1679 4.30671 7.96398 4.39329 7.72858C4.49413 7.50008 4.52422 7.24661 4.47966 7.00086C4.4351 6.7551 4.31794 6.52833 4.14329 6.34979L4.09783 6.30433C3.95696 6.16362 3.8452 5.99651 3.76896 5.81258C3.69271 5.62864 3.65346 5.43148 3.65346 5.23236C3.65346 5.03325 3.69271 4.83609 3.76896 4.65215C3.8452 4.46821 3.95696 4.30111 4.09783 4.16039C4.23855 4.01952 4.40565 3.90776 4.58959 3.83151C4.77353 3.75527 4.97069 3.71602 5.1698 3.71602C5.36892 3.71602 5.56608 3.75527 5.75002 3.83151C5.93395 3.90776 6.10106 4.01952 6.24177 4.16039L6.28723 4.20585C6.46577 4.3805 6.69254 4.49765 6.9383 4.54221C7.18405 4.58677 7.43752 4.55669 7.66602 4.45585H7.72662C7.95069 4.35982 8.14179 4.20036 8.27639 3.99711C8.41099 3.79386 8.48323 3.55569 8.4842 3.31191V3.18312C8.4842 2.78128 8.64383 2.39589 8.92798 2.11175C9.21212 1.8276 9.59751 1.66797 9.99935 1.66797C10.4012 1.66797 10.7866 1.8276 11.0707 2.11175C11.3549 2.39589 11.5145 2.78128 11.5145 3.18312V3.2513C11.5155 3.49508 11.5877 3.73325 11.7223 3.9365C11.8569 4.13975 12.048 4.29921 12.2721 4.39524C12.5006 4.49609 12.754 4.52617 12.9998 4.48161C13.2455 4.43705 13.4723 4.31989 13.6509 4.14524L13.6963 4.09979C13.837 3.95891 14.0041 3.84716 14.1881 3.77091C14.372 3.69466 14.5692 3.65541 14.7683 3.65541C14.9674 3.65541 15.1646 3.69466 15.3485 3.77091C15.5324 3.84716 15.6995 3.95891 15.8403 4.09979C15.9811 4.2405 16.0929 4.40761 16.1691 4.59154C16.2454 4.77548 16.2846 4.97264 16.2846 5.17176C16.2846 5.37087 16.2454 5.56803 16.1691 5.75197C16.0929 5.93591 15.9811 6.10301 15.8403 6.24373L15.7948 6.28918C15.6202 6.46773 15.503 6.6945 15.4584 6.94025C15.4139 7.186 15.444 7.43947 15.5448 7.66797V7.72858C15.6408 7.95264 15.8003 8.14374 16.0035 8.27834C16.2068 8.41295 16.445 8.48518 16.6887 8.48615H16.8175C17.2194 8.48615 17.6048 8.64578 17.8889 8.92993C18.1731 9.21407 18.3327 9.59946 18.3327 10.0013C18.3327 10.4031 18.1731 10.7885 17.8889 11.0727C17.6048 11.3568 17.2194 11.5165 16.8175 11.5165H16.7493C16.5056 11.5174 16.2674 11.5897 16.0641 11.7243C15.8609 11.8589 15.7014 12.05 15.6054 12.274Z" stroke="#E4E3EA" stroke-width="1.4" stroke-linecap="round" stroke-linejoin="round"/>
</g>
<defs>
<clipPath id="clip0_10967_25721">
<rect width="20" height="20" fill="white"/>
</clipPath>
</defs>
</svg>
