<svg width="24" height="24" viewBox="0 0 24 24" fill="none" xmlns="http://www.w3.org/2000/svg">
<path fill-rule="evenodd" clip-rule="evenodd" d="M17.6446 3.35937C19.0766 3.35937 20.2366 4.51946 20.2366 5.95135C20.2366 7.38323 19.0766 8.54332 17.6446 8.54332C16.2128 8.54332 15.0527 7.38323 15.0527 5.95135C15.0527 4.51946 16.2128 3.35937 17.6446 3.35937Z" stroke="#625F6E" stroke-width="1.44" stroke-linecap="round" stroke-linejoin="round"/>
<path fill-rule="evenodd" clip-rule="evenodd" d="M7.27752 9.40625C8.70941 9.40625 9.86949 10.5664 9.86949 11.9982C9.86949 13.4301 8.70941 14.5902 7.27752 14.5902C5.84563 14.5902 4.68555 13.4301 4.68555 11.9982C4.68555 10.5664 5.84563 9.40625 7.27752 9.40625Z" stroke="#625F6E" stroke-width="1.44" stroke-linecap="round" stroke-linejoin="round"/>
<path fill-rule="evenodd" clip-rule="evenodd" d="M17.6446 15.457C19.0766 15.457 20.2366 16.6171 20.2366 18.0489C20.2366 19.4799 19.0766 20.6409 17.6446 20.6409C16.2128 20.6409 15.0527 19.4799 15.0527 18.0489C15.0527 16.6171 16.2128 15.457 17.6446 15.457Z" stroke="#625F6E" stroke-width="1.44" stroke-linecap="round" stroke-linejoin="round"/>
<path d="M9.51458 13.3053L15.4159 16.7445M15.4066 7.25781L9.51367 10.6961" stroke="#625F6E" stroke-width="1.44" stroke-linecap="round" stroke-linejoin="round"/>
</svg>
