<svg width="40" height="40" viewBox="0 0 40 40" fill="none" xmlns="http://www.w3.org/2000/svg">
<path d="M8 0.5H32C36.1421 0.5 39.5 3.85786 39.5 8V32C39.5 36.1421 36.1421 39.5 32 39.5H8C3.85786 39.5 0.5 36.1421 0.5 32V8C0.5 3.85786 3.85786 0.5 8 0.5Z" fill="#0F1613" fill-opacity="0.02"/>
<path d="M8 0.5H32C36.1421 0.5 39.5 3.85786 39.5 8V32C39.5 36.1421 36.1421 39.5 32 39.5H8C3.85786 39.5 0.5 36.1421 0.5 32V8C0.5 3.85786 3.85786 0.5 8 0.5Z" stroke="#E6E8EA"/>
<path opacity="0.4" d="M11 20.0039C15.5 20.0039 20 15.5039 20 11.0039C20 15.5039 24.5 20.0039 29 20.0039C24.5 20.0039 20 24.5039 20 29.0039C20 24.5039 15.5 20.0039 11 20.0039Z" fill="#625F6E"/>
<path d="M11 20.0039C15.5 20.0039 20 15.5039 20 11.0039C20 15.5039 24.5 20.0039 29 20.0039C24.5 20.0039 20 24.5039 20 29.0039C20 24.5039 15.5 20.0039 11 20.0039Z" stroke="#625F6E" stroke-width="2" stroke-linejoin="round"/>
<path d="M10 27.5039C10.8333 27.5039 12.5 25.8372 12.5 25.0039C12.5 25.8372 14.1667 27.5039 15 27.5039C14.1667 27.5039 12.5 29.1706 12.5 30.0039C12.5 29.1706 10.8333 27.5039 10 27.5039Z" stroke="#625F6E" stroke-width="2" stroke-linejoin="round"/>
<path d="M24 13.0039C25 13.0039 27 11.0039 27 10.0039C27 11.0039 29 13.0039 30 13.0039C29 13.0039 27 15.0039 27 16.0039C27 15.0039 25 13.0039 24 13.0039Z" stroke="#625F6E" stroke-width="2" stroke-linejoin="round"/>
</svg>
