<svg width="28" height="28" viewBox="0 0 28 28" fill="none" xmlns="http://www.w3.org/2000/svg">
<rect x="0.5" y="0.5" width="27" height="27" rx="7.5" fill="white"/>
<rect x="0.5" y="0.5" width="27" height="27" rx="7.5" stroke="#E6E8EA"/>
<path d="M10.666 17.9974V16.6641M13.9993 17.9974V15.9974M17.3327 17.9974V14.6641M7.66602 13.9974C7.66602 11.0118 7.66602 9.51906 8.59351 8.59156C9.52101 7.66406 11.0138 7.66406 13.9993 7.66406C16.9849 7.66406 18.4777 7.66406 19.4052 8.59156C20.3327 9.51906 20.3327 11.0118 20.3327 13.9974C20.3327 16.9829 20.3327 18.4757 19.4052 19.4033C18.4777 20.3307 16.9849 20.3307 13.9993 20.3307C11.0138 20.3307 9.52101 20.3307 8.59351 19.4033C7.66602 18.4757 7.66602 16.9829 7.66602 13.9974Z" stroke="#625F6E" stroke-linecap="round" stroke-linejoin="round"/>
<path d="M9.99414 13.6608C11.4309 13.7086 14.6888 13.4918 16.5418 10.5508M15.3275 10.1955L16.5779 9.99425C16.7303 9.97484 16.954 10.0952 17.009 10.2386L17.3396 11.3309" stroke="#625F6E" stroke-linecap="round" stroke-linejoin="round"/>
</svg>
